<?xml version="1.0" encoding="UTF-8"?>
<!DOCTYPE svg PUBLIC "-//W3C//DTD SVG 1.1//EN" "http://www.w3.org/Graphics/SVG/1.1/DTD/svg11.dtd">
<svg version="1.1" xmlns="http://www.w3.org/2000/svg" xmlns:xlink="http://www.w3.org/1999/xlink" x="0" y="0" width="299.654" height="222.107" viewBox="0, 0, 299.654, 222.107">
  <g id="Layer_1" transform="translate(-95.123, -121.933)">
    <text transform="matrix(1, 0, -0, 1, 96.87, 129.933)">
      <tspan x="-1.748" y="4" font-family="Helvetica" font-size="12.58" kerning="0" fill="#000000" fill-opacity="0">I</tspan>
    </text>
    <g>
      <path d="M158.383,193.592 C158.603,193.411 158.927,193.443 159.107,193.663 C159.268,193.858 159.263,194.14 159.096,194.329 C158.98,194.462 158.88,194.568 158.772,194.658 C158.662,194.749 158.515,194.909 158.164,194.858 C157.79,194.804 157.614,194.462 157.568,194.268 C157.525,194.084 157.53,193.926 157.543,193.76 C157.594,193.076 157.845,192.179 158.1,191.095 C158.391,190.01 158.58,188.728 158.833,187.45 C159.164,185.865 159.449,184.446 159.767,183.249 C160.072,182.096 160.364,181.15 160.951,180.454 C161.275,180.09 161.713,179.853 162.158,179.796 C162.597,179.739 163.016,179.832 163.4,179.988 C164.172,180.301 164.892,180.882 165.649,181.617 C166.788,182.733 167.972,184.204 169.177,185.859 C170.474,187.848 171.733,189.987 172.878,192.075 C172.975,192.25 172.911,192.471 172.735,192.567 C172.575,192.655 172.374,192.61 172.267,192.461 C170.883,190.541 169.4,188.581 167.926,186.844 C166.691,185.227 165.514,183.844 164.461,182.874 C163.776,182.235 163.162,181.81 162.754,181.66 C162.574,181.594 162.466,181.593 162.432,181.599 C162.41,181.603 162.419,181.591 162.377,181.642 C161.85,182.245 161.256,184.701 160.583,187.813 C160.303,189.041 160.08,190.348 159.722,191.531 C159.349,192.636 159.01,193.513 158.869,194 C158.838,194.105 158.822,194.181 158.82,194.2 C158.82,194.203 158.811,194.087 158.817,194.137 C158.821,194.166 158.766,193.971 158.786,194.02 C158.807,194.072 158.625,193.8 158.677,193.854 C158.73,193.909 158.428,193.706 158.493,193.731 C158.585,193.767 158.229,193.705 158.276,193.7 C158.319,193.695 158.203,193.718 158.209,193.715 C158.21,193.715 158.281,193.676 158.383,193.592" fill="#000000"/>
      <path d="M164.998,188.575 C165.118,188.833 165.006,189.139 164.748,189.258 C164.491,189.378 164.185,189.266 164.065,189.008 C163.932,188.722 163.813,188.289 163.676,187.936 C163.673,187.936 163.648,187.9 163.635,187.883 C163.625,187.87 163.75,187.949 163.688,187.917 C163.652,187.898 163.952,187.97 163.866,187.965 C163.776,187.959 164.265,187.829 164.17,187.888 C164.077,187.945 164.379,187.646 164.35,187.701 C164.323,187.75 164.391,187.59 164.388,187.605 C164.366,187.678 164.417,188.486 164.459,189.472 C164.502,190.427 164.472,191.552 164.515,192.89 C164.554,194.251 164.66,195.877 164.762,197.866 C164.885,200.452 165.04,203.666 165.12,207.713 C165.213,212.175 165.156,217.423 165.156,223.082 C165.159,228.737 165.132,234.733 165.279,240.911 C165.386,245.88 165.781,250.996 166.033,256.208 C166.093,257.413 166.135,258.599 166.17,259.761 C166.241,262.46 166.325,265.289 166.366,268.306 C166.425,272.461 166.436,276.618 166.436,280.672 C166.423,281.875 166.408,283.051 166.394,284.22 C166.369,289.448 166.255,294.496 166.33,299.138 C166.396,302.53 166.621,305.727 166.86,308.662 C167.094,311.878 167.406,314.717 167.763,317.222 C168.279,320.849 168.888,323.753 169.47,326.069 C170.023,328.265 170.546,329.901 170.909,331.129 C170.966,331.321 170.856,331.522 170.664,331.579 C170.483,331.633 170.291,331.538 170.223,331.361 C169.923,330.578 169.549,329.602 169.142,328.392 C168.5,326.483 167.788,324.027 167.131,320.892 C166.442,317.611 165.818,313.619 165.371,308.791 C165.123,305.837 164.888,302.608 164.813,299.167 C164.695,294.489 164.766,289.431 164.749,284.212 C164.736,283.05 164.722,281.875 164.707,280.683 C164.7,276.623 164.682,272.474 164.616,268.332 C164.567,265.332 164.476,262.512 164.397,259.814 C164.368,258.654 164.332,257.48 164.278,256.29 C164.03,251.109 163.636,245.979 163.529,240.95 C163.41,234.74 163.465,228.729 163.491,223.078 C163.515,217.41 163.595,212.169 163.527,207.741 C163.462,203.718 163.321,200.522 163.213,197.938 C163.138,195.954 163.057,194.32 163.044,192.92 C163.037,191.534 163.103,190.396 163.1,189.504 C163.095,188.588 162.878,187.885 163.219,187.189 C163.357,186.967 163.595,186.767 163.891,186.784 C164.176,186.8 164.32,186.959 164.399,187.058 C164.543,187.24 164.598,187.413 164.653,187.615 C164.794,187.97 164.941,188.451 164.998,188.575" fill="#000000"/>
      <path d="M172.455,330.523 C172.201,330.393 172.1,330.082 172.23,329.828 C172.254,329.782 172.283,329.741 172.319,329.704 C172.638,329.374 172.618,329.548 172.659,329.543 C172.707,329.536 172.752,329.533 172.805,329.53 C172.915,329.524 173.058,329.519 173.233,329.514 C173.605,329.504 174.097,329.494 174.667,329.481 C176.071,329.475 178.056,329.441 181.022,329.318 C182.862,329.246 185.071,329.204 188.017,328.906 C189.574,328.747 191.341,328.507 193.357,328.21 C195.448,327.9 197.776,327.505 200.334,327.073 C202.948,326.627 205.76,326.103 208.735,325.599 C211.781,325.089 214.969,324.592 218.237,324.139 C223.469,323.413 228.982,322.94 234.995,322.467 C238.769,322.169 242.75,321.895 246.902,321.623 C248.116,321.543 249.358,321.453 250.644,321.368 C252.141,321.264 253.717,321.167 255.388,321.063 C259.888,320.799 264.599,320.476 269.495,320.175 C274.408,319.867 279.488,319.514 284.721,319.203 C286.649,319.095 288.585,319.009 290.512,318.918 C292.143,318.841 293.716,318.759 295.216,318.69 C298.857,318.512 302.544,318.353 306.243,318.225 C307.817,318.176 309.37,318.141 310.916,318.111 C319.413,317.94 327.672,317.993 335.474,318.025 C336.851,318.031 338.218,318.029 339.591,318.03 C341.185,318.044 342.815,318.059 344.505,318.072 C351.886,318.132 358.975,318.136 365.823,317.1 C366.021,317.07 366.205,317.206 366.235,317.404 C366.265,317.599 366.132,317.782 365.938,317.815 C359.039,318.989 351.897,319.113 344.505,319.18 C342.815,319.194 341.184,319.207 339.596,319.221 C338.219,319.223 336.852,319.228 335.471,319.226 C327.668,319.22 319.419,319.195 310.943,319.392 C309.402,319.429 307.854,319.473 306.29,319.53 C302.596,319.653 298.914,319.807 295.277,319.981 C293.785,320.057 292.212,320.149 290.578,320.234 C288.649,320.335 286.717,320.429 284.802,320.545 C279.573,320.842 274.493,321.18 269.573,321.473 C264.683,321.77 259.971,322.089 255.465,322.348 C253.791,322.439 252.217,322.524 250.723,322.615 C249.444,322.698 248.202,322.787 246.983,322.865 C242.834,323.131 238.857,323.4 235.09,323.692 C229.084,324.16 223.594,324.625 218.403,325.34 C215.148,325.79 211.971,326.282 208.935,326.789 C205.968,327.278 203.155,327.788 200.526,328.223 C197.968,328.651 195.633,329.044 193.525,329.353 C191.501,329.65 189.718,329.892 188.134,330.054 C185.144,330.362 182.895,330.41 181.071,330.488 C178.09,330.609 176.089,330.642 174.682,330.646 C174.096,330.637 173.601,330.624 173.229,330.611 C173.054,330.604 172.911,330.598 172.805,330.592 C172.754,330.589 172.713,330.586 172.675,330.582 C172.643,330.579 172.692,330.644 172.455,330.523" fill="#000000"/>
      <path d="M367.933,311.835 C368.117,312.052 368.09,312.377 367.873,312.561 C367.658,312.744 367.336,312.719 367.151,312.505 C367.046,312.384 366.958,312.261 366.896,312.118 C366.833,311.972 366.794,311.789 366.839,311.598 C366.885,311.406 367.014,311.249 367.145,311.156 C367.272,311.065 367.402,311.019 367.53,310.986 C368.042,310.855 368.656,310.906 369.346,310.977 C370.161,311.045 371.071,311.172 371.923,311.448 C372.772,311.724 373.591,312.151 374.076,312.916 C374.474,313.52 374.578,314.335 374.387,315.166 C374.184,316.063 373.676,316.992 372.971,317.953 C372.222,318.939 371.273,319.94 370.162,320.949 C369.304,321.715 368.362,322.476 367.348,323.224 C366.674,323.728 365.965,324.228 365.228,324.717 C363.966,325.362 362.739,325.928 361.481,326.448 C361.296,326.525 361.084,326.437 361.008,326.252 C360.943,326.095 360.995,325.915 361.134,325.817 C362.23,325.046 363.277,324.241 364.257,323.418 C365.049,322.893 365.738,322.415 366.395,321.931 C367.365,321.208 368.264,320.473 369.071,319.745 C370.141,318.795 371.037,317.868 371.715,317.002 C372.389,316.168 372.837,315.412 373.021,314.803 C373.183,314.263 373.145,313.866 372.979,313.559 C372.757,313.165 372.231,312.807 371.54,312.549 C370.829,312.285 369.997,312.13 369.224,312.03 C368.586,311.96 368.017,311.944 367.782,312 C367.736,312.011 367.757,311.998 367.739,312.01 C367.713,312.028 367.867,311.766 367.846,311.849 C367.825,311.928 367.846,311.712 367.847,311.713 C367.85,311.721 367.876,311.768 367.933,311.835" fill="#000000"/>
      <path d="M201.46,269.961 C201.657,269.756 201.983,269.75 202.188,269.948 C202.381,270.134 202.399,270.437 202.229,270.644 C201.865,271.089 201.44,271.396 200.966,271.501 C200.496,271.604 200.007,271.485 199.617,271.242 C198.838,270.756 198.341,269.862 198.087,268.914 C197.915,268.151 197.808,267.309 198.214,266.522 C198.623,265.796 199.339,265.446 200.065,265.243 C200.795,265.039 201.583,264.989 202.312,265.102 C203.394,265.272 204.221,266.061 204.476,267.033 C204.901,268.561 204.427,270.468 203.544,271.658 C203.297,272.03 202.96,272.392 202.454,272.515 C202.176,272.575 201.882,272.545 201.626,272.429 C201.535,272.388 201.456,272.327 201.392,272.251 C201.168,271.98 201.045,271.668 200.936,271.275 C200.882,271.082 200.995,270.883 201.188,270.829 C201.318,270.793 201.457,270.832 201.55,270.931 C201.761,271.156 201.897,271.19 201.906,271.19 C202.005,271.192 202.103,271.217 202.19,271.262 C202.211,271.273 202.2,271.269 202.207,271.268 C202.254,271.262 202.422,271.179 202.608,270.942 C203.187,270.12 203.557,268.36 203.259,267.378 C203.089,266.847 202.738,266.548 202.131,266.482 C201.614,266.425 201.001,266.488 200.491,266.653 C200,266.813 199.675,267.072 199.601,267.222 C199.444,267.514 199.443,267.967 199.567,268.562 C199.686,269.277 200.013,269.927 200.356,270.205 C200.512,270.331 200.645,270.377 200.791,270.364 C200.949,270.35 201.181,270.25 201.46,269.961" fill="#A400C7"/>
      <path d="M208.065,252.353 C208.296,252.519 208.35,252.84 208.185,253.071 C208.027,253.291 207.727,253.352 207.497,253.211 C206.651,252.692 206.077,251.992 205.704,251.28 C205.535,250.986 205.346,250.63 205.231,250.197 C205.156,249.871 205.051,249.469 205.147,248.984 C205.272,248.535 205.528,248.245 205.805,248.035 C206.08,247.827 206.392,247.681 206.722,247.568 C207.385,247.341 208.125,247.248 208.827,247.281 C209.674,247.313 210.412,247.607 210.868,248.136 C211.319,248.661 211.449,249.39 211.286,250.068 C211.237,250.412 211.098,250.805 210.916,251.188 C210.725,251.579 210.493,251.952 210.237,252.303 C210.026,252.577 209.815,252.82 209.598,253.044 C209.384,253.266 209.164,253.467 208.943,253.642 C208.692,253.796 208.527,253.878 208.36,253.941 C208.257,253.977 208.172,254.002 208.087,254.021 C207.744,254.096 207.405,253.879 207.33,253.536 C207.275,253.287 207.375,253.029 207.583,252.882 C207.617,252.858 207.654,252.829 207.693,252.797 C207.792,252.72 207.884,252.639 207.982,252.544 C208.227,252.357 208.406,252.205 208.588,252.031 C208.771,251.853 208.955,251.655 209.128,251.444 C209.381,251.155 209.6,250.862 209.777,250.572 C209.958,250.283 210.09,250.007 210.16,249.768 C210.223,249.438 210.141,249.158 209.953,248.959 C209.757,248.75 209.382,248.58 208.791,248.575 C208.259,248.576 207.661,248.683 207.203,248.867 C206.983,248.954 206.808,249.057 206.702,249.148 C206.607,249.229 206.593,249.275 206.592,249.277 C206.545,249.444 206.554,249.643 206.592,249.927 C206.621,250.21 206.705,250.484 206.817,250.785 C207.048,251.34 207.425,251.896 208.065,252.353" fill="#A400C7"/>
      <path d="M229.166,266.868 C229.442,266.799 229.722,266.968 229.79,267.244 C229.859,267.52 229.691,267.799 229.415,267.867 C229.407,267.869 229.399,267.871 229.392,267.872 C229.113,267.928 228.617,268.01 228.07,267.974 C227.934,268.018 227.65,268.048 227.34,268.007 C227.29,268 227.242,267.988 227.195,267.971 C226.463,267.703 226.056,266.984 225.877,266.249 C225.695,265.506 225.708,264.674 225.91,263.869 C226.403,262.183 228.005,261.177 229.469,261.03 C230.096,260.992 230.733,261.144 231.198,261.564 C231.769,262.015 232.048,262.752 232.159,263.496 C232.239,263.981 232.247,264.501 232.197,265.018 C232.16,265.406 232.09,265.791 231.989,266.163 C231.879,266.545 231.743,266.9 231.572,267.229 C231.354,267.594 231.129,267.883 230.857,268.122 C230.471,268.386 230.124,268.519 229.771,268.536 C229.423,268.552 229.128,268.283 229.112,267.936 C229.1,267.696 229.226,267.471 229.435,267.355 C229.513,267.311 229.6,267.229 229.688,267.097 C229.86,266.89 229.973,266.712 230.073,266.495 C230.213,266.233 230.316,265.98 230.4,265.706 C230.493,265.418 230.561,265.124 230.603,264.827 C230.66,264.433 230.671,264.042 230.633,263.695 C230.57,263.207 230.396,262.849 230.214,262.697 C230.127,262.634 229.96,262.595 229.67,262.639 C228.836,262.731 227.736,263.487 227.507,264.296 C227.32,264.867 227.272,265.47 227.349,265.952 C227.422,266.407 227.604,266.668 227.728,266.73 C227.772,266.752 227.814,266.779 227.853,266.81 C227.927,266.869 228.073,266.943 228.254,267 C228.529,266.995 228.957,266.92 229.166,266.868" fill="#A400C7"/>
      <path d="M229.709,229.492 C229.913,229.294 230.239,229.299 230.437,229.503 C230.617,229.688 230.632,229.977 230.472,230.18 C230.261,230.447 229.981,230.654 229.652,230.728 C229.321,230.802 228.968,230.728 228.68,230.561 C228.105,230.229 227.725,229.58 227.534,228.802 C227.296,227.724 227.328,226.444 227.949,225.364 C228.452,224.605 229.181,224.177 229.912,223.987 C230.634,223.8 231.405,223.824 232.002,224.228 C232.45,224.487 232.672,225.021 232.727,225.522 C232.783,226.024 232.71,226.556 232.569,227.096 C232.457,227.57 232.283,228.066 232.066,228.543 C231.898,228.906 231.709,229.25 231.5,229.571 C231.288,229.892 231.059,230.185 230.807,230.441 C230.472,230.721 230.171,230.91 229.841,231.018 C229.717,231.059 229.585,231.062 229.46,231.028 C229.248,230.97 229.07,230.866 228.953,230.749 C228.814,230.612 228.809,230.39 228.942,230.247 C228.973,230.212 229.004,230.164 229.039,230.095 C229.096,229.979 229.186,229.881 229.298,229.816 C229.419,229.745 229.567,229.616 229.72,229.438 C229.947,229.219 230.128,229.005 230.302,228.758 C230.482,228.505 230.65,228.226 230.801,227.932 C231.008,227.537 231.178,227.128 231.295,226.738 C231.41,226.323 231.459,225.929 231.434,225.653 C231.411,225.403 231.346,225.323 231.309,225.3 C231.163,225.226 230.748,225.206 230.329,225.354 C229.902,225.504 229.518,225.798 229.327,226.143 C228.923,226.774 228.813,227.732 228.942,228.513 C229.019,229.055 229.226,229.422 229.382,229.551 C229.447,229.605 229.481,229.611 229.508,229.61 C229.537,229.609 229.603,229.594 229.709,229.492" fill="#A400C7"/>
      <path d="M258.474,223.02 C258.737,222.91 259.038,223.033 259.148,223.295 C259.246,223.527 259.161,223.795 258.949,223.929 C258.59,224.157 258.087,224.22 257.7,223.998 C257.319,223.78 257.1,223.402 256.95,222.999 C256.643,222.175 256.585,221.126 256.683,220.036 C256.787,219.141 257.008,218.219 257.557,217.431 C258.138,216.67 258.942,216.282 259.712,216.107 C260.471,215.935 261.215,215.95 261.846,216.129 C262.531,216.303 263.112,216.854 263.296,217.519 C263.48,218.18 263.339,218.893 263.006,219.555 C262.867,219.872 262.662,220.201 262.433,220.512 C262.171,220.842 261.906,221.126 261.635,221.397 C261.465,221.572 261.284,221.749 261.105,221.921 C260.664,222.28 260.288,222.567 259.954,222.834 C259.753,222.98 259.593,223.097 259.45,223.208 C259.412,223.242 259.348,223.299 259.29,223.353 C259.023,223.602 258.606,223.588 258.357,223.321 C258.14,223.089 258.12,222.735 258.308,222.479 C258.369,222.397 258.434,222.314 258.501,222.232 C258.604,222.089 258.742,221.917 258.887,221.743 C259.222,221.38 259.555,221.043 259.878,220.702 C260.106,220.494 260.278,220.337 260.443,220.18 C260.676,219.95 260.899,219.711 261.09,219.476 C261.309,219.226 261.473,219.007 261.591,218.798 C261.773,218.435 261.797,218.112 261.751,217.946 C261.712,217.804 261.663,217.734 261.429,217.674 C261.118,217.604 260.6,217.605 260.116,217.735 C259.635,217.865 259.226,218.11 258.994,218.438 C258.645,218.889 258.426,219.538 258.309,220.244 C258.131,221.17 258.108,222.061 258.228,222.627 C258.283,222.882 258.37,223.028 258.396,223.051 C258.403,223.058 258.346,223.074 258.474,223.02" fill="#A400C7"/>
      <path d="M240.351,298.476 C240.608,298.599 240.717,298.906 240.595,299.163 C240.489,299.386 240.239,299.502 240,299.439 C239.295,299.255 238.788,298.617 238.488,297.889 C238.184,297.149 238.065,296.275 238.202,295.402 C238.585,293.723 240.061,292.564 241.548,292.307 C242.319,292.172 243.105,292.402 243.562,292.943 C244.016,293.479 244.128,294.218 243.991,294.926 C243.965,295.189 243.877,295.512 243.755,295.835 C243.614,296.18 243.448,296.5 243.258,296.817 C243.035,297.156 242.807,297.462 242.561,297.76 C242.407,297.952 242.237,298.149 242.062,298.34 C241.844,298.555 241.653,298.729 241.458,298.895 C241.086,299.159 240.769,299.356 240.452,299.524 C240.32,299.594 240.167,299.614 240.022,299.58 C239.937,299.56 239.857,299.538 239.784,299.514 C239.632,299.463 239.531,299.319 239.536,299.158 C239.539,299.093 239.541,299.025 239.544,298.954 C239.549,298.805 239.609,298.663 239.711,298.554 C239.921,298.33 240.13,298.083 240.33,297.823 C240.53,297.604 240.678,297.435 240.82,297.262 C241.003,297.062 241.149,296.892 241.289,296.72 C241.486,296.469 241.673,296.205 241.833,295.946 C242.022,295.668 242.166,295.425 242.277,295.198 C242.403,294.957 242.485,294.756 242.531,294.588 C242.585,294.28 242.503,294.037 242.411,293.93 C242.325,293.832 242.182,293.751 241.818,293.818 C240.975,293.976 239.937,294.861 239.758,295.692 C239.585,296.296 239.586,296.94 239.725,297.478 C239.858,297.997 240.116,298.364 240.351,298.476" fill="#A400C7"/>
      <path d="M200.188,312.102 C200.441,311.97 200.751,312.069 200.882,312.321 C200.998,312.545 200.936,312.82 200.734,312.971 C200.516,313.133 200.235,313.22 199.967,313.2 C199.702,313.18 199.468,313.07 199.273,312.931 C198.888,312.656 198.617,312.262 198.415,311.86 C197.882,310.631 197.966,309.174 198.861,308.104 C199.515,307.391 200.377,307.038 201.17,306.934 C201.463,306.892 201.868,306.768 202.35,306.98 C202.639,307.076 202.87,307.343 203.008,307.602 C203.144,307.856 203.217,308.126 203.268,308.399 C203.369,308.946 203.378,309.516 203.385,309.999 C203.386,310.27 203.395,310.541 203.378,310.822 C203.363,311.105 203.325,311.413 203.174,311.729 C203.011,312.005 202.826,312.199 202.601,312.332 C202.139,312.523 201.783,312.528 201.408,312.478 C201.198,312.45 201.016,312.322 200.919,312.134 C200.917,312.132 200.892,312.089 200.85,312.032 C200.739,311.88 200.761,311.669 200.903,311.545 C200.938,311.513 200.895,311.586 200.917,311.542 C201.014,311.354 201.196,311.225 201.405,311.196 C201.607,311.168 201.634,311.142 201.645,311.129 C201.745,311.041 201.726,311.063 201.731,311.052 C201.782,310.958 201.819,310.854 201.841,310.681 C201.864,310.495 201.872,310.251 201.886,309.973 C201.914,309.507 201.931,309.003 201.886,308.604 C201.865,308.415 201.829,308.262 201.794,308.179 C201.765,308.109 201.865,308.182 201.812,308.157 C201.836,308.168 201.707,308.191 201.381,308.252 C200.879,308.353 200.305,308.65 199.99,309.037 C199.425,309.67 199.329,310.493 199.65,311.309 C199.753,311.619 199.906,311.889 200.041,312.025 C200.102,312.086 200.147,312.108 200.159,312.111 C200.166,312.113 200.153,312.12 200.188,312.102" fill="#A400C7"/>
      <path d="M219.296,291.322 C219.574,291.262 219.848,291.439 219.908,291.716 C219.961,291.963 219.827,292.212 219.592,292.304 C219.286,292.424 218.936,292.399 218.645,292.278 C218.355,292.157 218.109,291.956 217.893,291.716 C217.455,291.23 217.123,290.575 216.904,289.849 C216.668,289.051 216.414,288.112 216.772,287.142 C217.126,286.332 217.802,285.834 218.515,285.485 C219.227,285.137 220.004,284.934 220.728,284.885 C221.299,284.856 221.934,284.858 222.432,285.304 C222.712,285.515 222.881,285.872 222.965,286.22 C223.049,286.568 223.06,286.933 223.035,287.309 C222.985,288.07 222.784,288.879 222.515,289.636 C222.377,290.024 222.228,290.399 222.06,290.752 C221.88,291.113 221.688,291.439 221.466,291.732 C221.312,291.931 221.149,292.11 220.967,292.267 C220.558,292.53 220.214,292.656 219.866,292.684 C219.527,292.711 219.231,292.459 219.204,292.121 C219.184,291.873 219.316,291.637 219.537,291.525 C219.654,291.465 219.766,291.369 219.878,291.227 C220.053,291.053 220.148,290.947 220.243,290.818 C220.396,290.614 220.543,290.367 220.684,290.083 C220.841,289.783 220.983,289.461 221.119,289.115 C221.372,288.469 221.563,287.769 221.622,287.189 C221.651,286.912 221.646,286.674 221.615,286.512 C221.587,286.365 221.545,286.316 221.545,286.315 C221.554,286.325 221.3,286.276 220.862,286.328 C220.331,286.382 219.714,286.56 219.198,286.832 C218.696,287.096 218.343,287.44 218.238,287.704 C218.038,288.137 218.092,288.77 218.249,289.501 C218.371,290.086 218.59,290.617 218.835,290.96 C218.95,291.121 219.064,291.23 219.15,291.282 C219.226,291.328 219.258,291.33 219.296,291.322" fill="#A400C7"/>
      <path d="M254.879,256.076 C255.097,255.895 255.422,255.925 255.603,256.143 C255.785,256.362 255.755,256.687 255.536,256.868 C255.531,256.873 255.525,256.878 255.519,256.882 C255.306,257.044 255.075,257.158 254.827,257.191 C254.579,257.224 254.323,257.163 254.126,257.039 L254.423,257.113 C254.242,257.127 254.043,257.084 253.861,256.999 C253.775,256.959 253.698,256.9 253.637,256.828 C253.133,256.236 252.966,255.393 252.92,254.499 C252.908,253.521 253.11,252.504 253.838,251.808 C254.55,251.15 255.497,251.069 256.274,251.228 C256.848,251.345 257.343,251.665 257.677,252.085 C258.009,252.502 258.196,253.008 258.269,253.53 C258.34,253.919 258.343,254.356 258.28,254.794 C258.236,255.116 258.153,255.448 258.031,255.771 C257.9,256.105 257.733,256.421 257.526,256.717 C257.301,257.024 257.046,257.297 256.751,257.536 C256.35,257.794 256,257.954 255.626,258.065 C255.545,258.097 255.418,258.138 255.289,258.172 C255.051,258.237 254.797,258.165 254.627,257.986 C254.59,257.948 254.551,257.906 254.51,257.861 C254.424,257.766 254.394,257.632 254.431,257.51 C254.442,257.474 254.447,257.449 254.449,257.436 C254.481,257.192 254.644,256.985 254.875,256.897 C254.961,256.864 255.044,256.828 255.123,256.788 C255.309,256.679 255.501,256.525 255.662,256.356 C255.918,256.139 256.078,255.967 256.214,255.781 C256.365,255.583 256.482,255.383 256.574,255.174 C256.674,254.958 256.745,254.742 256.79,254.528 C256.845,254.251 256.857,253.971 256.827,253.719 C256.781,253.442 256.671,253.192 256.528,253.021 C256.391,252.857 256.225,252.753 255.988,252.71 C255.577,252.637 255.111,252.74 254.917,252.928 C254.653,253.176 254.451,253.781 254.454,254.458 C254.429,255.187 254.56,255.815 254.703,256.042 C254.754,256.122 254.787,256.212 254.8,256.307 C254.809,256.366 254.82,256.403 254.828,256.419 L254.617,256.197 C254.638,256.208 254.635,256.208 254.662,256.203 C254.696,256.196 254.772,256.165 254.879,256.076" fill="#A400C7"/>
      <path d="M225.831,200.735 C226.113,200.77 226.314,201.026 226.28,201.308 C226.251,201.551 226.055,201.739 225.811,201.759 C225.221,201.808 224.628,201.651 224.129,201.327 C223.626,201.001 223.213,200.509 222.942,199.919 C222.676,199.216 222.411,198.359 222.73,197.441 C222.974,196.819 223.432,196.403 223.933,196.103 C224.434,195.803 225.002,195.608 225.584,195.517 C226.277,195.43 226.92,195.552 227.442,195.839 C227.961,196.123 228.368,196.577 228.555,197.122 C228.814,197.725 228.759,198.451 228.57,199.147 C228.494,199.476 228.372,199.83 228.22,200.175 C228.052,200.534 227.861,200.867 227.645,201.18 C227.404,201.507 227.154,201.792 226.883,202.046 C226.692,202.219 226.5,202.37 226.299,202.502 C225.903,202.705 225.564,202.818 225.222,202.856 C225,202.88 224.782,202.78 224.656,202.595 C224.611,202.529 224.58,202.465 224.564,202.411 C224.551,202.37 224.545,202.327 224.548,202.284 C224.549,202.268 224.55,202.247 224.551,202.223 C224.562,201.999 224.695,201.8 224.898,201.704 C225.057,201.629 225.226,201.509 225.394,201.352 C225.584,201.205 225.711,201.093 225.836,200.967 C226.036,200.771 226.221,200.549 226.391,200.308 C226.586,200.05 226.748,199.794 226.886,199.532 C227.038,199.259 227.156,198.996 227.242,198.742 C227.382,198.267 227.387,197.832 227.291,197.586 C227.219,197.439 227.043,197.274 226.799,197.171 C226.548,197.066 226.228,197.03 225.878,197.105 C225.473,197.18 225.092,197.326 224.804,197.511 C224.529,197.687 224.373,197.885 224.332,198 C224.2,198.337 224.268,198.794 224.443,199.332 C224.55,199.755 224.723,200.072 224.956,200.305 C225.187,200.536 225.479,200.692 225.831,200.735" fill="#A400C7"/>
      <path d="M196.249,223.995 C196.513,223.889 196.813,224.017 196.919,224.281 C197.01,224.507 196.93,224.765 196.728,224.9 C196.415,225.11 196.023,225.187 195.651,225.142 C195.278,225.098 194.918,224.946 194.586,224.731 C193.912,224.297 193.327,223.604 192.917,222.769 C192.496,221.83 192.164,220.815 192.471,219.767 C192.687,219.185 193.059,218.781 193.488,218.501 C193.917,218.22 194.415,218.049 194.938,217.988 C195.803,217.903 196.659,218.147 197.34,218.641 C198.086,219.119 198.518,219.962 198.689,220.815 C198.861,221.666 198.801,222.559 198.548,223.362 C198.333,224.095 197.935,224.753 197.507,225.288 C197.249,225.559 197.029,225.761 196.774,225.936 C196.628,226.045 196.444,226.158 196.244,226.256 C196.182,226.286 196.116,226.308 196.049,226.321 C195.847,226.36 195.638,226.386 195.413,226.404 C195.263,226.416 195.114,226.373 194.992,226.284 C194.956,226.257 194.907,226.223 194.845,226.185 C194.681,226.084 194.626,225.872 194.718,225.703 C194.746,225.652 194.759,225.616 194.764,225.601 C194.807,225.456 194.901,225.332 195.028,225.251 C195.166,225.163 195.268,225.079 195.347,225 C195.396,224.952 195.451,224.909 195.511,224.875 C195.62,224.812 195.712,224.746 195.799,224.672 C195.905,224.574 196.025,224.431 196.163,224.247 C196.554,223.813 196.873,223.335 197.044,222.856 C197.22,222.333 197.275,221.678 197.171,221.105 C197.07,220.547 196.825,220.107 196.479,219.875 C196.118,219.662 195.594,219.573 195.196,219.65 C194.905,219.701 194.662,219.807 194.491,219.935 C194.329,220.056 194.245,220.184 194.216,220.282 C194.06,220.701 194.14,221.344 194.43,222.114 C194.652,222.768 195.016,223.327 195.397,223.671 C195.579,223.835 195.758,223.942 195.906,223.991 C196.045,224.037 196.148,224.036 196.249,223.995" fill="#A400C7"/>
      <path d="M284.377,250.538 C284.596,250.356 284.92,250.386 285.102,250.605 C285.251,250.784 285.261,251.041 285.127,251.231 C284.952,251.478 284.751,251.685 284.508,251.835 C284.263,251.986 283.96,252.079 283.639,252.054 C283.314,252.029 282.992,251.88 282.74,251.652 C282.487,251.424 282.298,251.123 282.165,250.785 C281.972,250.128 281.855,249.362 282.083,248.532 C282.385,247.658 282.991,247.077 283.649,246.684 C284.303,246.293 285.035,246.069 285.752,246.058 C286.548,246.028 287.305,246.358 287.762,246.919 C288.217,247.477 288.373,248.24 288.208,248.96 C288.154,249.367 287.966,249.816 287.731,250.261 C287.557,250.595 287.35,250.93 287.127,251.259 C286.974,251.483 286.818,251.699 286.659,251.911 C286.365,252.257 286.104,252.547 285.853,252.819 C285.703,252.988 285.546,253.162 285.398,253.325 C285.167,253.538 285.012,253.674 284.869,253.797 C284.86,253.811 284.801,253.872 284.745,253.93 C284.438,254.251 283.929,254.262 283.609,253.954 C283.309,253.667 283.277,253.198 283.536,252.873 C283.59,252.805 283.647,252.735 283.707,252.662 C283.772,252.56 283.891,252.391 284.018,252.214 C284.221,251.977 284.372,251.807 284.526,251.629 C284.742,251.37 284.974,251.086 285.198,250.797 C285.395,250.57 285.552,250.386 285.7,250.203 C285.926,249.927 286.128,249.66 286.295,249.408 C286.508,249.084 286.656,248.789 286.713,248.583 C286.754,248.348 286.676,248.116 286.54,247.964 C286.404,247.812 286.184,247.703 285.826,247.729 C285.468,247.764 285.002,247.936 284.627,248.197 C284.259,248.454 284.017,248.774 283.948,249.035 C283.809,249.453 283.829,249.889 283.907,250.268 C283.938,250.507 283.974,250.614 284.004,250.671 C284.029,250.719 284.025,250.711 284.032,250.715 C284.04,250.72 284.02,250.719 284.069,250.709 C284.129,250.698 284.241,250.651 284.377,250.538" fill="#A400C7"/>
      <path d="M296.025,298.426 C296.309,298.423 296.542,298.651 296.546,298.935 C296.549,299.219 296.321,299.453 296.037,299.456 C296.028,299.456 296.019,299.456 296.01,299.456 C295.596,299.439 295.207,299.29 294.858,299.073 C294.244,298.847 293.598,298.307 293.094,297.643 C292.713,297.034 292.439,296.389 292.452,295.652 C292.473,295.25 292.512,294.743 292.86,294.259 C293.264,293.758 293.757,293.587 294.209,293.484 C294.657,293.382 295.109,293.354 295.532,293.35 C295.995,293.354 296.522,293.324 297.069,293.53 C297.49,293.649 297.874,293.983 298.112,294.362 C298.348,294.737 298.47,295.155 298.536,295.576 C298.668,296.417 298.584,297.282 298.41,298.012 C298.367,298.272 298.285,298.573 298.162,298.858 C298.06,299.074 297.953,299.255 297.824,299.424 C297.573,299.714 297.316,299.918 297.027,300.069 C296.77,300.183 296.562,300.243 296.349,300.281 C296.18,300.32 295.961,300.345 295.738,300.349 C295.635,300.351 295.533,300.335 295.436,300.301 C295.249,300.237 295.064,300.159 294.878,300.069 C294.535,299.903 294.392,299.491 294.557,299.148 C294.652,298.953 294.833,298.814 295.045,298.772 C295.18,298.746 295.29,298.711 295.375,298.674 C295.469,298.633 295.57,298.609 295.672,298.604 C295.785,298.597 295.882,298.581 295.965,298.559 C296.001,298.546 296.065,298.516 296.119,298.482 C296.26,298.404 296.332,298.347 296.4,298.268 C296.493,298.171 296.542,298.109 296.591,298.033 C296.686,297.891 296.762,297.739 296.827,297.551 C296.959,297.067 297.039,296.364 296.969,295.796 C296.935,295.524 296.866,295.3 296.786,295.161 C296.713,295.035 296.654,294.988 296.565,294.959 C296.442,294.931 296.07,294.957 295.617,294.999 C295.25,295.026 294.905,295.074 294.648,295.151 C294.41,295.222 294.355,295.256 294.334,295.287 C294.289,295.349 294.24,295.483 294.218,295.743 C294.179,296.055 294.258,296.406 294.454,296.807 C294.69,297.425 295.037,297.947 295.433,298.281 C295.599,298.363 295.831,298.429 296.025,298.426" fill="#00733B"/>
      <path d="M321.969,296.325 C322.194,296.151 322.518,296.193 322.691,296.418 C322.839,296.609 322.834,296.877 322.679,297.062 C322.451,297.335 322.155,297.547 321.797,297.605 C321.437,297.663 321.067,297.546 320.781,297.349 C320.212,296.957 319.859,296.3 319.644,295.577 C319.432,294.546 319.53,293.589 319.778,292.815 C319.967,292.303 320.305,291.913 320.692,291.686 C321.072,291.464 321.475,291.381 321.852,291.352 C322.225,291.332 322.629,291.333 323.05,291.423 C323.482,291.522 323.914,291.68 324.275,291.982 C324.671,292.232 324.969,292.75 325.022,293.275 C325.063,293.558 325.036,293.877 324.96,294.188 C324.869,294.519 324.736,294.821 324.567,295.114 C324.38,295.422 324.167,295.703 323.923,295.973 C323.767,296.148 323.591,296.325 323.403,296.495 C323.045,296.77 322.717,296.981 322.367,297.168 C321.927,297.349 321.547,297.469 321.157,297.555 C321.058,297.577 320.955,297.573 320.858,297.543 C320.756,297.513 320.656,297.479 320.557,297.444 C320.369,297.376 320.272,297.168 320.339,296.98 C320.349,296.953 320.362,296.927 320.378,296.903 C320.427,296.829 320.472,296.755 320.513,296.683 C320.563,296.594 320.635,296.52 320.722,296.468 C321.003,296.298 321.26,296.107 321.492,295.903 C321.814,295.672 322.047,295.477 322.254,295.274 C322.455,295.103 322.593,294.975 322.719,294.845 C322.897,294.657 323.053,294.459 323.176,294.267 C323.312,294.066 323.404,293.888 323.463,293.731 C323.531,293.56 323.558,293.43 323.56,293.332 C323.557,293.215 323.529,293.148 323.412,293.059 C323.346,293.026 323.099,292.958 322.827,292.935 C322.585,292.911 322.322,292.935 322.057,292.982 C321.832,293.016 321.691,293.072 321.617,293.124 C321.552,293.17 321.517,293.207 321.479,293.337 C321.309,293.84 321.228,294.568 321.341,295.166 C321.399,295.729 321.563,296.158 321.709,296.334 C321.769,296.407 321.797,296.411 321.797,296.411 C321.798,296.412 321.845,296.421 321.969,296.325" fill="#00733B"/>
      <path d="M308.359,273.421 C308.641,273.454 308.843,273.711 308.809,273.993 C308.782,274.219 308.609,274.401 308.384,274.439 C308.068,274.493 307.752,274.552 307.369,274.424 C307.168,274.357 306.949,274.215 306.799,274.003 C306.648,273.79 306.574,273.534 306.552,273.28 C306.616,271.829 307.603,270.385 308.805,269.398 C309.488,268.864 310.253,268.635 310.935,268.633 C311.649,268.63 312.258,269.036 312.58,269.531 C312.897,270.017 313.014,270.577 313.001,271.108 C313.047,271.487 312.99,272.066 312.679,272.643 C312.496,272.964 312.281,273.263 312.04,273.559 C311.777,273.866 311.502,274.151 311.216,274.423 C311.025,274.604 310.83,274.777 310.633,274.941 C310.249,275.206 309.933,275.396 309.624,275.55 C309.558,275.588 309.461,275.639 309.363,275.686 C309.209,275.76 309.035,275.778 308.869,275.737 C308.663,275.686 308.474,275.607 308.349,275.475 C308.276,275.398 308.24,275.293 308.251,275.188 C308.264,275.069 308.301,274.944 308.347,274.801 C308.4,274.638 308.507,274.499 308.651,274.407 C308.716,274.366 308.785,274.319 308.856,274.268 C309.04,274.122 309.273,273.917 309.508,273.689 C309.744,273.498 309.917,273.352 310.086,273.199 C310.341,272.97 310.585,272.73 310.8,272.493 C311.032,272.249 311.221,272.026 311.361,271.827 C311.589,271.52 311.649,271.314 311.675,271.03 C311.663,270.821 311.565,270.515 311.429,270.331 C311.303,270.162 311.196,270.096 310.979,270.108 C310.62,270.13 310.18,270.28 309.808,270.597 C308.924,271.316 308.123,272.742 308.094,273.257 C308.066,273.439 308.065,273.424 308.069,273.444 C308.075,273.472 307.992,273.324 308.013,273.344 C308.037,273.366 308.115,273.391 308.359,273.421" fill="#00733B"/>
      <path d="M285.864,284.554 C286.146,284.515 286.406,284.711 286.445,284.993 C286.48,285.243 286.327,285.482 286.085,285.556 C285.688,285.677 285.248,285.634 284.896,285.435 C284.546,285.237 284.288,284.918 284.101,284.562 C283.724,283.844 283.594,282.947 283.655,282.052 C283.762,281.191 284.076,280.318 284.794,279.717 C285.517,279.147 286.404,279.022 287.209,279.093 C287.919,279.139 288.564,279.465 289.021,279.931 C289.474,280.393 289.761,280.981 289.915,281.592 C290.047,282.059 290.1,282.569 290.071,283.074 C290.056,283.438 289.995,283.816 289.879,284.179 C289.804,284.417 289.704,284.654 289.575,284.879 C289.323,285.256 289.04,285.547 288.695,285.766 C288.483,285.907 288.225,286.026 287.949,286.102 C287.9,286.115 287.851,286.124 287.8,286.129 C287.382,286.166 286.955,286.108 286.533,285.971 C286.335,285.906 286.178,285.755 286.105,285.56 C286.085,285.507 286.059,285.44 286.028,285.364 C285.966,285.206 286.02,285.026 286.16,284.93 C286.205,284.9 286.225,284.878 286.225,284.878 C286.361,284.719 286.56,284.631 286.768,284.639 C287.032,284.648 287.227,284.6 287.368,284.534 C287.413,284.512 287.461,284.495 287.509,284.482 C287.614,284.454 287.706,284.412 287.791,284.357 C287.901,284.281 288.014,284.161 288.11,284.005 C288.217,283.854 288.284,283.736 288.341,283.604 C288.425,283.406 288.486,283.174 288.518,282.929 C288.553,282.611 288.535,282.263 288.462,281.939 C288.365,281.561 288.183,281.215 287.952,280.98 C287.726,280.751 287.456,280.613 287.095,280.59 C286.589,280.57 286.08,280.715 285.835,280.93 C285.51,281.2 285.306,281.662 285.235,282.208 C285.106,282.895 285.138,283.581 285.299,284.042 C285.374,284.258 285.472,284.405 285.559,284.478 C285.639,284.545 285.711,284.575 285.864,284.554" fill="#00733B"/>
      <path d="M274.573,304.483 C274.855,304.523 275.05,304.784 275.01,305.065 C274.974,305.32 274.754,305.509 274.497,305.507 C273.634,305.501 272.709,305.334 272.163,304.541 C271.886,304.138 271.728,303.61 271.736,303.024 C271.865,301.511 273.003,300.104 274.422,299.432 C275.105,299.109 275.821,299.074 276.418,299.198 C276.95,299.298 277.422,299.593 277.741,299.984 C278.057,300.372 278.237,300.841 278.318,301.321 C278.424,301.827 278.418,302.388 278.317,302.935 C278.27,303.242 278.184,303.569 278.061,303.884 C277.915,304.223 277.744,304.521 277.531,304.792 C277.39,304.971 277.229,305.141 277.046,305.292 C276.731,305.531 276.398,305.7 276.031,305.791 C275.985,305.802 275.938,305.81 275.891,305.814 C275.519,305.844 275.141,305.792 274.782,305.666 C274.708,305.64 274.638,305.603 274.576,305.555 C274.309,305.351 274.071,305.106 273.841,304.814 C273.717,304.657 273.744,304.429 273.902,304.305 C273.986,304.239 274.095,304.214 274.2,304.235 C274.486,304.295 274.699,304.278 274.831,304.242 C274.907,304.221 274.985,304.212 275.064,304.216 C275.233,304.224 275.363,304.195 275.471,304.147 C275.515,304.128 275.559,304.113 275.605,304.101 C275.725,304.071 275.841,304.013 275.957,303.924 C276.068,303.845 276.149,303.773 276.228,303.687 C276.346,303.556 276.458,303.392 276.554,303.206 C276.671,302.996 276.757,302.79 276.821,302.575 C276.911,302.235 276.941,301.858 276.901,301.529 C276.859,301.269 276.761,301.035 276.634,300.876 C276.512,300.723 276.365,300.625 276.137,300.579 C275.827,300.524 275.408,300.556 275.055,300.732 C274.146,301.184 273.294,302.419 273.251,303.084 C273.205,303.443 273.251,303.693 273.334,303.868 C273.476,304.171 273.869,304.382 274.573,304.483" fill="#00733B"/>
      <path d="M252.395,312.947 C252.656,312.833 252.959,312.952 253.073,313.213 C253.186,313.473 253.067,313.777 252.807,313.89 C252.797,313.895 252.787,313.898 252.777,313.902 C252.491,314.006 252.184,314.025 251.917,313.932 C251.653,313.839 251.454,313.649 251.323,313.443 C250.971,313.104 250.817,312.472 250.778,311.86 C250.832,310.672 251.595,309.664 252.663,308.969 C253.367,308.532 254.135,308.251 254.866,308.136 C255.191,308.088 255.532,308.047 255.903,308.13 C256.232,308.179 256.58,308.364 256.826,308.627 C257.071,308.888 257.22,309.208 257.302,309.533 C257.413,309.963 257.414,310.419 257.342,310.867 C257.301,311.184 257.213,311.521 257.082,311.845 C256.927,312.193 256.741,312.499 256.501,312.771 C256.208,313.068 255.894,313.289 255.527,313.422 C254.913,313.565 254.363,313.481 253.891,313.228 C253.838,313.199 253.788,313.164 253.743,313.122 C253.478,312.873 253.25,312.569 253.032,312.197 C252.931,312.025 252.989,311.803 253.162,311.701 C253.272,311.637 253.408,311.635 253.52,311.697 C253.825,311.866 254.066,311.913 254.204,311.909 C254.265,311.908 254.326,311.914 254.386,311.928 C254.59,311.978 254.7,311.945 254.804,311.884 C254.992,311.797 255.093,311.724 255.195,311.61 C255.342,311.462 255.452,311.31 255.545,311.133 C255.659,310.932 255.74,310.734 255.794,310.534 C255.854,310.289 255.867,310.03 255.836,309.836 C255.814,309.703 255.771,309.61 255.733,309.56 C255.698,309.515 255.67,309.492 255.591,309.474 C255.551,309.468 255.364,309.481 255.106,309.53 C254.573,309.624 253.961,309.857 253.451,310.185 C252.633,310.687 252.177,311.347 252.131,311.876 C252.037,312.355 252.058,312.784 252.153,312.991 C252.148,312.965 252.178,312.98 252.201,312.986 C252.226,312.992 252.28,312.997 252.395,312.947" fill="#00733B"/>
      <path d="M293.863,264.532 C294.053,264.744 294.034,265.069 293.822,265.259 C293.628,265.432 293.334,265.433 293.139,265.26 C292.373,264.584 291.952,263.341 291.8,262.08 C291.718,261.485 291.686,260.805 291.951,260.106 C292.571,258.707 293.972,257.84 295.201,257.504 C295.618,257.41 295.977,257.431 296.276,257.501 C296.596,257.537 296.975,257.769 297.199,258.086 C297.419,258.4 297.508,258.766 297.527,259.129 C297.564,259.859 297.333,260.644 296.904,261.394 C296.712,261.738 296.48,262.065 296.231,262.368 C296.061,262.572 295.887,262.762 295.71,262.941 C295.374,263.236 295.084,263.456 294.803,263.649 C294.64,263.767 294.463,263.886 294.292,263.992 C294.038,264.122 293.864,264.197 293.698,264.258 C293.699,264.262 293.625,264.296 293.553,264.326 C293.465,264.361 293.393,264.386 293.319,264.407 C292.918,264.524 292.499,264.294 292.383,263.893 C292.282,263.546 292.441,263.176 292.762,263.011 C292.791,262.996 292.827,262.976 292.869,262.951 C292.925,262.92 292.972,262.892 293.024,262.861 C293.058,262.828 293.174,262.735 293.297,262.63 C293.497,262.486 293.638,262.382 293.783,262.267 C293.983,262.099 294.206,261.896 294.419,261.676 C294.622,261.493 294.771,261.351 294.912,261.203 C295.126,260.979 295.317,260.747 295.474,260.511 C295.798,260.015 295.966,259.488 295.978,259.143 C295.983,258.988 295.953,258.894 295.941,258.871 C295.935,258.861 295.973,258.888 295.956,258.884 C295.906,258.882 295.764,258.889 295.625,258.934 C294.774,259.166 293.653,259.942 293.328,260.672 C293.127,261.066 293.079,261.478 293.091,261.987 C293.135,263.018 293.485,264.108 293.863,264.532" fill="#00733B"/>
      <path d="M319.815,248.52 C319.976,248.755 319.916,249.075 319.682,249.236 C319.448,249.397 319.127,249.337 318.966,249.103 C318.962,249.096 318.957,249.089 318.953,249.082 C318.787,248.814 318.63,248.514 318.519,248.182 C318.384,247.995 318.227,247.643 318.163,247.228 C318.164,246.41 318.528,245.738 319.063,245.135 C319.727,244.434 320.616,243.939 321.556,243.736 C322.273,243.585 323.009,243.625 323.617,243.974 C323.997,244.177 324.277,244.554 324.407,244.947 C324.536,245.335 324.547,245.741 324.501,246.144 C324.448,246.675 324.287,247.226 324.062,247.764 C323.892,248.17 323.685,248.564 323.451,248.933 C323.214,249.303 322.952,249.644 322.664,249.943 C322.303,250.264 321.966,250.494 321.591,250.636 C321.149,250.769 320.708,250.774 320.334,250.597 C320.242,250.553 320.162,250.489 320.1,250.408 C319.956,250.221 319.886,250.03 319.842,249.839 C319.798,249.644 319.92,249.45 320.115,249.405 C320.176,249.391 320.24,249.393 320.3,249.411 C320.369,249.432 320.354,249.428 320.363,249.424 C320.457,249.385 320.559,249.369 320.66,249.377 C320.695,249.38 320.768,249.367 320.893,249.283 C321.083,249.173 321.263,249.021 321.447,248.815 C321.699,248.57 321.908,248.32 322.103,248.039 C322.303,247.753 322.483,247.442 322.633,247.127 C322.831,246.71 322.969,246.294 323.024,245.944 C323.057,245.707 323.045,245.505 323.009,245.386 C322.978,245.281 322.952,245.253 322.899,245.222 C322.72,245.126 322.31,245.075 321.876,245.175 C321.247,245.317 320.581,245.699 320.17,246.142 C319.749,246.566 319.555,246.954 319.532,247.19 C319.458,247.504 319.448,247.725 319.478,247.963 C319.538,248.08 319.669,248.307 319.815,248.52" fill="#00733B"/>
      <path d="M333.34,272.257 C333.616,272.188 333.896,272.355 333.965,272.631 C334.029,272.888 333.888,273.151 333.639,273.24 C333.121,273.427 332.758,273.578 332.416,273.66 C332.074,273.743 331.568,273.705 331.244,273.396 C330.402,272.431 330.168,270.832 330.367,269.354 C330.476,268.643 330.836,268.041 331.326,267.642 C331.811,267.246 332.402,267.031 333.002,266.94 C333.531,266.885 334.045,266.875 334.54,266.98 C335.143,267.078 335.692,267.456 335.982,267.956 C336.267,268.45 336.331,269.017 336.277,269.565 C336.269,269.916 336.19,270.325 336.058,270.724 C335.962,271.02 335.834,271.316 335.676,271.6 C335.496,271.903 335.301,272.169 335.075,272.413 C334.908,272.586 334.741,272.735 334.56,272.869 C334.189,273.094 333.871,273.228 333.537,273.306 C333.349,273.359 333.118,273.396 332.882,273.404 C332.553,273.381 332.324,273.332 332.102,273.256 C331.735,273.129 331.54,272.729 331.666,272.362 C331.764,272.078 332.032,271.887 332.333,271.888 C332.448,271.888 332.553,271.874 332.651,271.848 C332.85,271.814 332.951,271.787 333.05,271.748 C333.165,271.696 333.307,271.602 333.443,271.484 C333.617,271.356 333.714,271.274 333.808,271.182 C333.967,271.033 334.104,270.872 334.225,270.697 C334.368,270.504 334.48,270.317 334.572,270.125 C334.69,269.874 334.773,269.614 334.812,269.373 C334.834,269.105 334.78,268.852 334.695,268.709 C334.618,268.578 334.523,268.496 334.27,268.457 C334.029,268.432 333.647,268.461 333.274,268.532 C332.856,268.59 332.539,268.714 332.323,268.885 C332.113,269.05 331.975,269.258 331.92,269.588 C331.72,270.654 332.009,272.128 332.275,272.494 C332.314,272.554 332.142,272.477 332.263,272.475 C332.433,272.471 332.804,272.391 333.34,272.257" fill="#00733B"/>
      <path d="M341.004,236.958 C341.185,237.177 341.154,237.501 340.935,237.682 C340.736,237.846 340.447,237.838 340.257,237.663 C339.788,237.228 339.715,236.559 339.753,235.9 C339.791,235.234 339.971,234.537 340.406,233.984 C340.891,233.402 341.621,233.201 342.316,233.18 C343.012,233.159 343.72,233.312 344.306,233.68 C344.971,234.1 345.277,234.9 345.184,235.601 C345.151,235.973 345.015,236.363 344.818,236.73 C344.759,236.869 344.657,237.057 344.539,237.24 C344.403,237.439 344.266,237.613 344.115,237.78 C343.853,238.048 343.587,238.272 343.296,238.472 C342.918,238.688 342.589,238.833 342.244,238.94 C341.829,239.038 341.467,239.08 341.102,239.074 C341.038,239.072 340.974,239.063 340.912,239.047 C340.467,238.927 340.056,238.73 339.703,238.468 C339.542,238.349 339.508,238.122 339.627,237.961 C339.692,237.874 339.792,237.82 339.9,237.815 C340.233,237.798 340.519,237.711 340.767,237.588 C340.824,237.559 340.885,237.537 340.948,237.524 C341.167,237.475 341.38,237.397 341.582,237.296 C341.854,237.182 342.058,237.07 342.247,236.94 C342.518,236.783 342.708,236.651 342.879,236.505 C343.023,236.391 343.133,236.294 343.232,236.194 C343.349,236.08 343.44,235.98 343.519,235.88 C343.623,235.72 343.71,235.519 343.745,235.355 C343.782,235.124 343.749,235.01 343.535,234.866 C343.255,234.677 342.783,234.542 342.336,234.542 C341.899,234.542 341.543,234.678 341.409,234.828 C341.18,235.068 340.983,235.542 340.916,236.015 C340.851,236.478 340.947,236.888 341.004,236.958" fill="#00733B"/>
      <path d="M321.552,224.724 C321.823,224.809 321.973,225.099 321.887,225.37 C321.812,225.607 321.579,225.756 321.332,225.725 C321.006,225.684 320.725,225.504 320.51,225.283 C320.295,225.062 320.129,224.792 319.996,224.5 C319.728,223.911 319.587,223.232 319.599,222.567 C319.63,221.847 319.921,221.081 320.598,220.625 C321.33,220.2 322.097,220.217 322.773,220.327 C323.518,220.439 324.138,220.893 324.5,221.474 C324.86,222.053 324.987,222.774 324.812,223.459 C324.663,224.265 324.074,224.945 323.429,225.453 C323.11,225.678 322.81,225.835 322.506,225.958 C322.055,226.111 321.644,226.188 321.245,226.227 C321.153,226.236 321.06,226.225 320.972,226.193 C320.805,226.134 320.648,226.069 320.5,226.001 C320.319,225.916 320.24,225.701 320.324,225.519 C320.35,225.464 320.389,225.416 320.438,225.38 C320.555,225.294 320.668,225.205 320.776,225.115 C320.847,225.055 320.93,225.011 321.02,224.987 C321.331,224.904 321.63,224.794 321.902,224.651 C322.15,224.538 322.347,224.424 322.528,224.287 C323.055,223.934 323.446,223.49 323.551,223.119 C323.611,222.833 323.534,222.486 323.353,222.221 C323.174,221.958 322.905,221.781 322.579,221.744 C322.106,221.696 321.638,221.776 321.457,221.898 C321.203,222.047 321.061,222.288 321.019,222.659 C320.957,223.104 321.005,223.634 321.14,224.062 C321.205,224.268 321.289,224.443 321.373,224.561 C321.451,224.669 321.518,224.713 321.552,224.724" fill="#00733B"/>
      <path d="M334.798,211.49 C335.08,211.529 335.276,211.789 335.237,212.07 C335.204,212.307 335.013,212.489 334.776,212.512 C334.394,212.548 334.04,212.314 333.836,212.044 C333.634,211.775 333.511,211.454 333.422,211.108 C333.242,210.404 333.208,209.592 333.318,208.823 C333.509,207.856 334.126,206.996 335.069,206.66 C335.849,206.413 336.66,206.483 337.359,206.778 C338.111,207.07 338.632,207.718 338.871,208.409 C339.107,209.095 339.103,209.858 338.778,210.511 C338.679,210.771 338.481,211.048 338.248,211.286 C338.011,211.526 337.741,211.728 337.452,211.902 C337.131,212.081 336.819,212.216 336.499,212.327 C335.96,212.447 335.519,212.494 335.096,212.488 C334.827,212.464 334.624,212.43 334.432,212.381 C334.089,212.292 333.883,211.943 333.971,211.6 C334.035,211.352 334.24,211.166 334.492,211.127 C334.623,211.106 334.763,211.075 334.908,211.035 C335.268,210.963 335.589,210.866 335.892,210.738 C336.228,210.636 336.458,210.55 336.666,210.45 C336.899,210.347 337.083,210.242 337.227,210.132 C337.37,210.024 337.469,209.917 337.527,209.821 C337.62,209.629 337.641,209.234 337.517,208.878 C337.393,208.522 337.15,208.236 336.821,208.109 C336.443,207.975 335.94,207.973 335.603,208.102 C335.197,208.242 334.909,208.594 334.805,209.087 C334.648,209.673 334.604,210.347 334.668,210.875 C334.698,211.126 334.754,211.33 334.809,211.441 C334.856,211.534 334.743,211.482 334.798,211.49" fill="#00733B"/>
      <path d="M304.063,238.011 C304.346,237.985 304.596,238.194 304.622,238.477 C304.645,238.729 304.481,238.961 304.236,239.023 C303.655,239.17 303.045,238.965 302.535,238.616 C302.018,238.263 301.568,237.756 301.213,237.167 C300.868,236.576 300.598,235.935 300.582,235.244 C300.573,235.023 300.492,234.639 300.736,234.157 C301.151,233.466 301.77,233.365 302.296,233.281 C302.822,233.197 303.365,233.183 303.845,233.16 C304.609,233.142 305.344,232.992 306.093,233.225 C306.594,233.367 307.047,233.855 307.13,234.391 C307.223,234.75 307.147,235.161 307.017,235.547 C306.885,235.938 306.686,236.317 306.446,236.687 C306.167,237.081 305.87,237.429 305.547,237.751 C305.199,238.08 304.845,238.365 304.475,238.599 C304.235,238.753 303.983,238.888 303.723,238.991 C303.615,239.037 303.484,239.084 303.349,239.121 C303.283,239.139 303.215,239.148 303.146,239.148 C302.859,239.151 302.569,239.098 302.317,238.967 C301.999,238.802 301.874,238.41 302.039,238.092 C302.135,237.908 302.311,237.781 302.515,237.749 C302.56,237.742 302.636,237.716 302.734,237.658 C302.793,237.623 302.856,237.596 302.922,237.577 C302.976,237.562 303.039,237.54 303.107,237.51 C303.226,237.453 303.385,237.357 303.551,237.237 C303.801,237.053 304.063,236.816 304.31,236.553 C304.581,236.278 304.816,235.997 305.011,235.72 C305.239,235.424 305.401,235.164 305.5,234.947 C305.595,234.742 305.614,234.595 305.613,234.574 C305.622,234.641 305.712,234.724 305.667,234.712 C305.468,234.667 304.773,234.755 303.941,234.813 C303.434,234.837 302.938,234.856 302.558,234.917 C302.378,234.946 302.236,234.985 302.161,235.016 C302.129,235.03 302.126,235.032 302.121,235.036 C302.112,235.043 302.212,234.915 302.185,234.96 C302.125,235.048 302.174,234.961 302.166,235.004 C302.156,235.059 302.147,235.161 302.134,235.3 C302.114,235.56 302.229,236.035 302.452,236.499 C302.671,236.97 302.97,237.381 303.282,237.656 C303.579,237.918 303.862,238.029 304.063,238.011" fill="#00733B"/>
      <path d="M309.877,207.87 C310.144,207.966 310.284,208.261 310.187,208.529 C310.122,208.711 309.96,208.841 309.768,208.865 C309.693,208.875 309.934,208.803 309.911,208.817 C309.892,208.829 309.933,208.802 309.927,208.807 C309.911,208.822 309.871,208.865 309.822,208.923 C309.716,209.048 309.58,209.224 309.404,209.4 C309.238,209.617 308.909,209.769 308.596,209.808 C308.286,209.847 307.977,209.796 307.685,209.647 C307.637,209.622 307.591,209.593 307.548,209.559 C306.99,209.121 306.82,208.486 306.752,207.881 C306.683,207.274 306.735,206.646 306.97,206.065 C307.348,205.299 308.018,204.986 308.643,204.831 C309.267,204.677 309.925,204.666 310.546,204.766 C311.128,204.865 311.646,205.099 312.028,205.465 C312.408,205.83 312.645,206.357 312.604,206.891 C312.64,207.18 312.516,207.557 312.34,207.896 C312.239,208.108 312.1,208.329 311.944,208.546 C311.77,208.775 311.591,208.984 311.402,209.189 C311.206,209.399 311.005,209.599 310.801,209.794 C310.581,209.998 310.371,210.185 310.166,210.366 C309.786,210.656 309.471,210.888 309.19,211.101 C308.948,211.262 308.77,211.381 308.614,211.488 C308.475,211.588 308.35,211.682 308.259,211.759 C307.969,212.005 307.533,211.968 307.288,211.677 C307.101,211.457 307.072,211.143 307.214,210.892 C307.317,210.712 307.444,210.541 307.586,210.369 C307.72,210.201 307.878,210.022 308.047,209.84 C308.361,209.542 308.655,209.279 308.951,209.01 C309.213,208.801 309.422,208.636 309.625,208.47 C309.844,208.297 310.041,208.136 310.225,207.977 C310.414,207.816 310.582,207.663 310.728,207.516 C310.888,207.362 311.012,207.228 311.106,207.107 C311.221,206.949 311.273,206.816 311.279,206.761 C311.27,206.769 311.224,206.676 311.086,206.572 C310.935,206.458 310.681,206.359 310.358,206.334 C309.931,206.298 309.465,206.345 309.116,206.462 C308.791,206.57 308.665,206.722 308.663,206.728 C308.538,207 308.471,207.382 308.493,207.726 C308.514,208.059 308.613,208.262 308.629,208.276 C308.67,208.313 308.707,208.353 308.739,208.397 C308.765,208.431 308.722,208.377 308.73,208.38 C308.735,208.382 308.633,208.414 308.672,208.394 C308.729,208.35 308.875,208.222 309.04,208.097 C309.123,208.033 309.213,207.969 309.33,207.913 C309.454,207.855 309.642,207.786 309.877,207.87" fill="#00733B"/>
      <path d="M268.722,315.704 C268.505,316.012 268.079,316.087 267.771,315.87 C267.463,315.654 267.388,315.228 267.605,314.92 L346.584,202.456 C346.801,202.147 347.227,202.073 347.535,202.289 C347.843,202.506 347.918,202.931 347.701,203.24 z" fill="#00733B"/>
      <path d="M176.679,263.793 C176.309,263.865 175.95,263.624 175.878,263.254 C175.805,262.884 176.046,262.526 176.416,262.453 L285.578,241.065 C285.948,240.993 286.307,241.234 286.379,241.604 C286.451,241.973 286.21,242.332 285.84,242.404 z" fill="#A400C7"/>
      <path d="M170.748,216.856 C170.898,216.614 171.216,216.54 171.457,216.69 C171.699,216.84 171.773,217.158 171.623,217.399 C171.532,217.546 171.374,217.637 171.202,217.642 C170.856,217.653 170.751,217.557 170.528,217.511 C170.606,217.52 170.72,217.42 170.68,217.471 C170.657,217.499 170.734,217.295 170.728,217.347 C170.722,217.4 170.679,217.156 170.7,217.197 C170.751,217.342 170.715,217.248 170.735,217.269 C170.759,217.295 170.808,217.337 170.876,217.384 C171.021,217.484 171.237,217.597 171.492,217.707 C172.022,217.936 172.682,218.144 173.311,218.298 C173.505,218.346 173.624,218.542 173.576,218.737 C173.531,218.923 173.348,219.041 173.16,219.007 C172.488,218.885 171.786,218.708 171.183,218.494 C170.889,218.39 170.623,218.28 170.397,218.153 C170.175,218.029 169.963,217.904 169.832,217.624 C169.738,217.252 169.869,216.973 170.056,216.833 C170.238,216.697 170.465,216.659 170.679,216.693 C170.722,216.68 170.848,216.678 170.932,216.671 C170.97,216.668 170.98,216.667 170.987,216.665 C170.994,216.664 170.894,216.705 170.929,216.688 C170.948,216.678 170.825,216.759 170.855,216.735 C170.887,216.71 170.712,216.914 170.748,216.856" fill="#A400C7"/>
      <path d="M180.781,222.442 C180.538,222.294 180.462,221.977 180.611,221.734 C180.759,221.492 181.076,221.416 181.319,221.564 C181.339,221.577 181.358,221.591 181.377,221.606 C181.827,221.976 182.68,222.22 183.9,222.57 C184.092,222.625 184.203,222.826 184.148,223.018 C184.096,223.2 183.912,223.311 183.727,223.273 C182.492,223.021 181.547,222.912 180.781,222.442" fill="#A400C7"/>
      <path d="M192.66,225.804 C192.383,225.743 192.207,225.468 192.268,225.19 C192.329,224.913 192.604,224.737 192.882,224.798 C192.898,224.802 192.914,224.806 192.929,224.811 C193.938,225.137 195.179,225.475 196.289,226.53 C196.434,226.667 196.439,226.897 196.301,227.042 C196.17,227.18 195.954,227.193 195.808,227.071 C194.778,226.218 193.718,226.037 192.66,225.804" fill="#A400C7"/>
      <path d="M204.007,227.102 C203.74,227.005 203.603,226.709 203.7,226.442 C203.798,226.175 204.093,226.038 204.36,226.135 C204.375,226.14 204.389,226.146 204.403,226.153 C204.967,226.418 205.37,226.727 205.936,226.915 C206.536,227.115 207.395,227.211 208.749,227.033 C208.947,227.006 209.129,227.146 209.155,227.344 C209.181,227.538 209.049,227.717 208.856,227.749 C207.435,227.987 206.444,227.947 205.69,227.757 C204.976,227.576 204.481,227.275 204.007,227.102" fill="#A400C7"/>
      <path d="M217.443,226.565 C217.159,226.574 216.921,226.352 216.911,226.068 C216.902,225.783 217.125,225.546 217.409,225.536 C217.417,225.536 217.424,225.536 217.432,225.536 C219.545,225.561 220.675,225.493 223.449,224.838 C223.643,224.792 223.839,224.913 223.885,225.107 C223.929,225.298 223.815,225.489 223.627,225.54 C220.85,226.293 219.589,226.494 217.443,226.565" fill="#A400C7"/>
      <path d="M231.903,222.814 C231.678,222.641 231.635,222.317 231.809,222.092 C231.982,221.867 232.305,221.824 232.53,221.997 C232.544,222.008 232.556,222.018 232.569,222.03 C232.88,222.321 233.172,222.466 233.516,222.469 C233.88,222.472 234.365,222.302 234.961,221.881 C235.125,221.765 235.351,221.804 235.466,221.968 C235.577,222.124 235.547,222.339 235.398,222.459 C234.758,222.975 234.155,223.286 233.554,223.344 C232.961,223.401 232.383,223.183 231.903,222.814" fill="#A400C7"/>
      <path d="M243.808,220.94 C243.524,220.929 243.302,220.69 243.313,220.406 C243.324,220.121 243.564,219.9 243.848,219.911 C243.862,219.912 243.876,219.913 243.891,219.915 C244.535,219.994 245.124,220.142 245.833,220.064 C246.579,219.983 247.517,219.643 248.716,218.761 C248.877,218.642 249.104,218.677 249.223,218.838 C249.339,218.995 249.309,219.217 249.155,219.337 C247.91,220.316 246.857,220.777 245.955,220.933 C245.094,221.081 244.379,220.962 243.808,220.94" fill="#A400C7"/>
      <path d="M254.67,216.933 C254.398,217.017 254.11,216.864 254.027,216.593 C253.943,216.321 254.095,216.033 254.367,215.949 C254.387,215.943 254.408,215.938 254.428,215.934 C255.274,215.784 255.553,215.923 256.544,215.049 C256.694,214.917 256.923,214.931 257.055,215.081 C257.181,215.224 257.175,215.441 257.041,215.576 C256.024,216.601 255.369,216.718 254.67,216.933" fill="#A400C7"/>
      <path d="M265.002,211.077 C264.718,211.057 264.505,210.81 264.525,210.527 C264.545,210.243 264.792,210.03 265.075,210.05 C265.097,210.052 265.118,210.054 265.139,210.059 C265.334,210.097 265.748,209.984 266.266,209.664 C266.819,209.324 267.456,208.806 268.158,208.199 C268.309,208.068 268.538,208.084 268.669,208.236 C268.795,208.382 268.785,208.6 268.646,208.734 C267.968,209.387 267.346,209.964 266.754,210.393 C266.182,210.808 265.624,211.122 265.002,211.077" fill="#A400C7"/>
      <path d="M273.471,206.136 C273.21,206.25 272.907,206.13 272.794,205.869 C272.681,205.609 272.8,205.305 273.061,205.192 C273.101,205.174 273.144,205.162 273.188,205.155 C273.494,205.108 273.704,205.035 274.203,204.476 C274.336,204.327 274.565,204.314 274.714,204.447 C274.851,204.569 274.875,204.775 274.77,204.925 C274.293,205.607 273.907,205.947 273.471,206.136" fill="#A400C7"/>
      <path d="M281.192,199.029 C280.927,199.13 280.629,198.997 280.528,198.731 C280.426,198.466 280.559,198.168 280.825,198.067 C280.865,198.052 280.906,198.042 280.948,198.037 C281.123,198.016 281.418,197.766 282.154,197.009 C282.294,196.866 282.523,196.863 282.667,197.002 C282.801,197.133 282.813,197.345 282.695,197.49 C282.038,198.301 281.79,198.801 281.192,199.029" fill="#A400C7"/>
      <path d="M287.603,192.23 C287.449,192.47 287.131,192.539 286.892,192.386 C286.652,192.232 286.583,191.914 286.736,191.674 C286.753,191.649 286.771,191.625 286.792,191.603 C287.103,191.267 287.496,190.549 288.97,189.719 C289.145,189.621 289.366,189.683 289.464,189.858 C289.558,190.025 289.505,190.237 289.343,190.34 C288.025,191.185 287.973,191.653 287.603,192.23" fill="#A400C7"/>
      <path d="M178.254,324.934 C178.308,325.214 178.125,325.483 177.846,325.537 C177.567,325.591 177.297,325.408 177.243,325.129 C177.236,325.09 177.233,325.051 177.234,325.012 C177.248,324.66 177.463,324.38 177.621,324.226 C177.777,324.073 177.967,323.891 178.219,323.49 C178.326,323.32 178.549,323.269 178.719,323.376 C178.877,323.475 178.933,323.679 178.849,323.845 C178.609,324.323 178.402,324.607 178.3,324.771 C178.22,324.901 178.233,324.826 178.254,324.934" fill="#A400C7"/>
      <path d="M184.88,316.658 C184.929,316.938 184.743,317.205 184.463,317.255 C184.183,317.304 183.916,317.118 183.866,316.838 C183.861,316.812 183.859,316.785 183.858,316.759 C183.845,316.159 184.22,315.741 184.633,315.237 C185.065,314.709 185.618,314.083 186.199,313.264 C186.314,313.101 186.541,313.062 186.704,313.178 C186.862,313.29 186.904,313.505 186.8,313.668 C186.239,314.548 185.705,315.229 185.332,315.766 C184.987,316.261 184.87,316.602 184.88,316.658" fill="#A400C7"/>
      <path d="M192.738,307.887 C192.577,308.122 192.257,308.181 192.022,308.02 C191.788,307.86 191.728,307.539 191.889,307.305 C191.9,307.288 191.912,307.273 191.925,307.258 C192.584,306.501 193.059,306.666 194.144,305.203 C194.263,305.042 194.49,305.008 194.651,305.127 C194.806,305.242 194.844,305.459 194.737,305.62 C194.173,306.464 193.751,306.916 193.419,307.211 C193.115,307.481 192.933,307.604 192.738,307.887" fill="#A400C7"/>
      <path d="M199.555,301.057 C199.271,301.067 199.033,300.844 199.024,300.56 C199.014,300.276 199.237,300.038 199.521,300.028 C199.546,300.027 199.572,300.029 199.597,300.031 C199.894,300.065 200.007,300.065 200.201,299.984 C200.425,299.89 200.772,299.655 201.331,299.248 C201.492,299.13 201.719,299.166 201.837,299.327 C201.949,299.481 201.923,299.695 201.778,299.818 C200.76,300.675 200.311,301.032 199.555,301.057" fill="#A400C7"/>
      <path d="M210.725,293.687 C210.441,293.709 210.194,293.496 210.173,293.212 C210.152,292.929 210.364,292.682 210.648,292.661 C210.685,292.658 210.721,292.659 210.758,292.664 C210.976,292.695 211.982,292.371 212.879,291.707 C213.04,291.588 213.267,291.622 213.386,291.783 C213.498,291.934 213.475,292.146 213.334,292.27 C212.409,293.086 211.487,293.63 210.725,293.687" fill="#A400C7"/>
      <path d="M219.76,289.352 C219.478,289.311 219.284,289.05 219.325,288.768 C219.366,288.487 219.627,288.292 219.909,288.333 C219.923,288.335 219.937,288.338 219.951,288.341 C220.407,288.447 220.881,288.366 221.526,288.103 C222.216,287.82 223.072,287.345 224.201,286.776 C224.379,286.685 224.597,286.757 224.687,286.936 C224.775,287.11 224.71,287.322 224.54,287.416 C222.408,288.599 221.205,289.563 219.76,289.352" fill="#A400C7"/>
      <path d="M231.697,284.668 C231.436,284.554 231.317,284.251 231.431,283.99 C231.544,283.73 231.848,283.61 232.108,283.724 C232.136,283.736 232.163,283.75 232.188,283.767 C232.262,283.816 232.573,283.885 233.048,283.81 C233.561,283.728 234.223,283.514 234.99,283.157 C235.171,283.073 235.387,283.151 235.471,283.333 C235.553,283.507 235.484,283.714 235.314,283.805 C234.526,284.228 233.828,284.515 233.224,284.668 C232.646,284.814 232.142,284.862 231.697,284.668" fill="#A400C7"/>
      <path d="M242.747,282.616 C242.465,282.652 242.207,282.453 242.171,282.171 C242.135,281.889 242.334,281.631 242.616,281.595 C242.633,281.592 242.65,281.591 242.668,281.59 C243.735,281.562 244.496,281.835 246.044,281.743 C246.244,281.732 246.415,281.884 246.427,282.084 C246.438,282.275 246.299,282.442 246.108,282.465 C244.483,282.659 243.628,282.502 242.747,282.616" fill="#A400C7"/>
      <path d="M253.318,280.715 C253.04,280.654 252.864,280.379 252.925,280.102 C252.985,279.824 253.26,279.648 253.537,279.709 C253.557,279.713 253.576,279.718 253.594,279.725 C254.305,279.968 255.091,279.923 255.965,279.589 C256.152,279.518 256.362,279.611 256.433,279.798 C256.5,279.972 256.423,280.168 256.257,280.252 C255.307,280.728 254.309,280.931 253.318,280.715" fill="#A400C7"/>
      <path d="M262.106,278.998 C261.874,278.833 261.82,278.511 261.985,278.28 C262.15,278.048 262.472,277.994 262.703,278.159 C262.723,278.173 262.741,278.188 262.758,278.205 C262.93,278.367 263.197,278.498 263.651,278.501 C264.148,278.504 264.847,278.342 265.749,277.933 C265.931,277.85 266.146,277.931 266.228,278.113 C266.308,278.289 266.236,278.497 266.064,278.585 C265.122,279.068 264.344,279.321 263.685,279.376 C263.054,279.43 262.508,279.285 262.106,278.998" fill="#A400C7"/>
      <path d="M274.171,277.648 C273.892,277.594 273.709,277.323 273.764,277.044 C273.818,276.765 274.088,276.583 274.367,276.637 C274.384,276.641 274.4,276.644 274.415,276.649 C275.642,277.013 276.031,277.924 277.517,277.46 C277.708,277.4 277.911,277.506 277.971,277.697 C278.028,277.881 277.932,278.078 277.752,278.145 C276.836,278.487 276.085,278.426 275.508,278.208 C274.954,278 274.557,277.723 274.171,277.648" fill="#A400C7"/>
      <path d="M290.448,282.571 C290.208,282.418 290.137,282.1 290.29,281.86 C290.442,281.62 290.761,281.55 291.001,281.702 C291.018,281.714 291.036,281.726 291.052,281.74 C291.558,282.158 292.635,282.427 294.054,283.225 C294.228,283.323 294.29,283.544 294.192,283.719 C294.098,283.885 293.891,283.951 293.718,283.867 C292.339,283.2 291.296,283.111 290.448,282.571" fill="#A400C7"/>
      <path d="M304.889,290.62 C304.731,290.384 304.794,290.065 305.03,289.906 C305.266,289.748 305.586,289.811 305.744,290.047 C305.751,290.057 305.757,290.067 305.763,290.077 C306.415,291.21 307.023,291.544 308.575,292.023 C308.767,292.082 308.874,292.285 308.815,292.476 C308.758,292.66 308.568,292.767 308.382,292.721 C306.759,292.322 305.739,291.888 304.889,290.62" fill="#A400C7"/>
      <path d="M310.502,294.245 C310.416,293.974 310.566,293.684 310.837,293.598 C311.108,293.513 311.397,293.663 311.483,293.934 C311.491,293.958 311.497,293.982 311.501,294.007 C311.6,294.616 311.735,294.947 312.248,295.767 C312.354,295.937 312.302,296.16 312.132,296.266 C311.974,296.365 311.767,296.328 311.653,296.18 C311.05,295.395 310.724,294.947 310.502,294.245" fill="#A400C7"/>
      <path d="M233.208,307.312 C233.491,307.336 233.702,307.585 233.678,307.868 C233.653,308.152 233.404,308.362 233.121,308.338 C233.11,308.337 233.099,308.335 233.087,308.334 C232.92,308.308 232.805,308.3 232.755,308.301 C232.736,308.301 232.814,308.285 232.774,308.295 C232.75,308.301 232.956,308.199 232.897,308.239 C232.865,308.26 233.037,308.096 233.002,308.141 C232.965,308.188 233.101,307.904 233.085,307.969 C233.069,308.034 233.082,307.73 233.091,307.785 C233.107,307.875 232.985,307.563 233.013,307.6 C233.05,307.65 232.92,307.513 232.934,307.523 C232.946,307.531 232.92,307.515 232.925,307.517 C232.947,307.527 233.019,307.55 233.117,307.566 C233.561,307.637 234.357,307.57 235.057,306.999 C235.213,306.873 235.441,306.896 235.567,307.052 C235.689,307.202 235.672,307.421 235.528,307.55 C234.676,308.314 233.673,308.477 233.02,308.436 C232.867,308.427 232.736,308.407 232.62,308.376 C232.505,308.346 232.307,308.449 232.167,307.997 C232.083,307.73 232.285,307.477 232.403,307.407 C232.509,307.344 232.592,307.328 232.671,307.316 C232.828,307.291 232.996,307.294 233.208,307.312" fill="#00733B"/>
      <path d="M246.426,302.228 C246.145,302.269 245.884,302.074 245.842,301.793 C245.801,301.511 245.996,301.25 246.277,301.209 C246.292,301.207 246.307,301.205 246.322,301.204 C247.234,301.151 248.483,300.106 250.53,298.668 C250.694,298.553 250.92,298.593 251.035,298.757 C251.147,298.916 251.113,299.135 250.958,299.253 C248.997,300.748 247.859,302.018 246.426,302.228" fill="#00733B"/>
      <path d="M258.853,294.46 C259.08,294.288 259.402,294.333 259.574,294.559 C259.746,294.786 259.702,295.108 259.475,295.28 C259.464,295.289 259.453,295.297 259.441,295.305 C259.396,295.333 259.379,295.348 259.377,295.35 C259.373,295.354 259.419,295.29 259.405,295.313 C259.389,295.339 259.464,295.122 259.453,295.184 C259.441,295.249 259.4,294.879 259.43,294.956 C259.46,295.032 259.263,294.749 259.307,294.785 C259.348,294.819 259.179,294.718 259.205,294.727 C259.228,294.735 259.152,294.714 259.159,294.715 C259.242,294.728 259.112,294.718 259.136,294.712 C259.239,294.684 259.5,294.556 259.804,294.362 C260.23,294.089 260.732,293.714 261.223,293.299 C261.376,293.17 261.605,293.19 261.734,293.343 C261.858,293.49 261.845,293.708 261.705,293.84 C261.218,294.3 260.72,294.721 260.278,295.05 C259.856,295.364 259.589,295.622 259.141,295.658 C259.029,295.663 258.924,295.659 258.794,295.598 C258.653,295.531 258.488,295.34 258.473,295.134 C258.458,294.936 258.536,294.799 258.608,294.7 C258.679,294.604 258.76,294.53 258.853,294.46" fill="#00733B"/>
      <path d="M267.578,288.018 C267.336,287.868 267.262,287.551 267.411,287.309 C267.561,287.068 267.878,286.993 268.12,287.143 C268.14,287.155 268.159,287.169 268.177,287.184 C268.236,287.232 268.243,287.234 268.299,287.229 C268.371,287.222 268.524,287.168 268.738,287.022 C269.218,286.693 269.903,285.999 270.846,284.934 C270.978,284.784 271.207,284.77 271.357,284.903 C271.503,285.032 271.521,285.254 271.396,285.405 C270.48,286.514 269.824,287.269 269.262,287.725 C268.996,287.941 268.739,288.101 268.449,288.168 C268.157,288.235 267.829,288.173 267.578,288.018" fill="#00733B"/>
      <path d="M277.833,277.245 C277.698,276.995 277.791,276.683 278.042,276.548 C278.292,276.413 278.604,276.506 278.739,276.756 C278.874,277.006 278.781,277.318 278.531,277.453 C278.502,277.469 278.471,277.482 278.439,277.492 C278.426,277.496 278.409,277.501 278.388,277.505 C278.203,277.543 278.013,277.476 277.892,277.332 C277.866,277.301 277.848,277.272 277.833,277.245 M278.78,277.101 C278.729,277.371 278.468,277.548 278.198,277.497 C277.928,277.445 277.751,277.184 277.803,276.914 C277.854,276.644 278.115,276.467 278.385,276.519 C278.466,276.534 278.542,276.57 278.606,276.622 C278.663,276.668 278.422,276.526 278.462,276.54 C278.549,276.572 278.239,276.514 278.28,276.512 C278.337,276.51 278.148,276.538 278.17,276.531 C278.19,276.525 278.124,276.55 278.131,276.546 C278.154,276.535 278.162,276.526 278.237,276.462 C278.409,276.316 278.682,276.04 279.042,275.621 C279.172,275.469 279.401,275.451 279.553,275.582 C279.695,275.704 279.721,275.915 279.611,276.068 C279.279,276.532 279.03,276.856 278.869,277.064 C278.795,277.159 278.743,277.227 278.723,277.255 C278.719,277.26 278.724,277.253 278.721,277.257 C278.716,277.264 278.783,277.112 278.759,277.178 C278.753,277.194 278.788,277.063 278.78,277.101" fill="#00733B"/>
      <path d="M286.413,266.953 C286.358,267.233 286.088,267.415 285.809,267.36 C285.53,267.305 285.348,267.035 285.402,266.756 C285.409,266.724 285.418,266.693 285.43,266.663 C285.703,265.982 286.123,266.018 286.679,265.26 C286.797,265.098 287.024,265.064 287.186,265.182 C287.337,265.293 287.378,265.5 287.282,265.661 C286.994,266.139 286.754,266.416 286.603,266.598 C286.472,266.755 286.446,266.786 286.413,266.953" fill="#00733B"/>
      <path d="M291.983,259.084 C291.983,259.368 291.752,259.598 291.468,259.598 C291.184,259.598 290.953,259.368 290.953,259.084 C290.953,258.799 291.184,258.569 291.468,258.569 C291.752,258.569 291.983,258.799 291.983,259.084 M291.98,259.07 C291.987,259.352 291.765,259.585 291.484,259.593 C291.202,259.6 290.969,259.378 290.961,259.097 C290.954,258.815 291.176,258.582 291.457,258.574 C291.527,258.573 291.596,258.585 291.66,258.611 C291.77,258.655 291.393,258.578 291.441,258.576 C291.516,258.571 291.269,258.617 291.298,258.606 C291.371,258.578 291.199,258.66 291.206,258.654 C291.213,258.649 291.224,258.639 291.257,258.607 C291.331,258.534 291.439,258.416 291.559,258.275 C291.808,257.982 292.088,257.614 292.273,257.293 C292.373,257.12 292.595,257.06 292.768,257.16 C292.926,257.252 292.991,257.446 292.921,257.614 C292.748,258.027 292.487,258.449 292.261,258.797 C292.153,258.965 292.056,259.108 291.989,259.209 C291.958,259.256 291.935,259.293 291.927,259.305 C291.925,259.308 291.939,259.283 291.932,259.295 C291.929,259.302 291.957,259.234 291.949,259.255 C291.945,259.267 291.971,259.181 291.965,259.205 C291.959,259.23 291.978,258.993 291.98,259.07" fill="#00733B"/>
      <path d="M298.648,248.56 C298.582,248.837 298.304,249.007 298.028,248.942 C297.769,248.88 297.6,248.632 297.637,248.368 C297.718,247.8 297.986,247.32 298.291,246.848 C298.859,246.176 299.496,245.471 300.122,244.238 C300.212,244.059 300.43,243.988 300.609,244.078 C300.775,244.163 300.85,244.359 300.783,244.533 C300.25,245.898 299.662,246.784 299.28,247.451 C298.927,247.92 298.728,248.225 298.648,248.56" fill="#00733B"/>
      <path d="M304.967,237.108 C305.004,237.389 304.806,237.648 304.524,237.685 C304.242,237.722 303.983,237.524 303.946,237.242 C303.943,237.213 303.941,237.183 303.942,237.154 C303.968,236.512 304.241,236.061 304.955,235.241 C305.086,235.09 305.315,235.074 305.466,235.205 C305.608,235.328 305.632,235.54 305.521,235.692 C304.903,236.54 304.901,236.606 304.967,237.108" fill="#00733B"/>
      <path d="M311.046,222.607 C311.014,222.889 310.758,223.092 310.476,223.059 C310.193,223.026 309.991,222.771 310.024,222.488 C310.026,222.467 310.03,222.446 310.035,222.425 C310.233,221.619 310.521,221.322 310.961,220.513 C311.056,220.337 311.276,220.272 311.452,220.367 C311.616,220.456 311.685,220.655 311.613,220.826 C311.242,221.707 311.127,221.907 311.046,222.607" fill="#00733B"/>
      <path d="M315.438,212.963 C315.634,213.169 315.625,213.495 315.419,213.691 C315.213,213.886 314.887,213.878 314.691,213.671 C314.676,213.655 314.663,213.639 314.65,213.621 C314.32,213.172 314.214,212.541 314.396,211.876 C314.586,211.18 315.055,210.39 315.844,209.44 C315.972,209.287 316.201,209.265 316.355,209.393 C316.504,209.518 316.529,209.738 316.411,209.892 C315.702,210.82 315.346,211.555 315.25,212.072 C315.165,212.534 315.269,212.784 315.438,212.963" fill="#00733B"/>
      <path d="M320.581,201.275 C320.692,201.537 320.569,201.839 320.307,201.949 C320.075,202.048 319.805,201.962 319.671,201.748 C319.466,201.42 319.325,201.057 319.271,200.667 C319.303,199.489 319.885,198.417 320.7,196.704 C320.786,196.523 321.002,196.446 321.183,196.532 C321.354,196.614 321.434,196.813 321.366,196.989 C320.689,198.753 320.35,199.849 320.445,200.5 C320.444,200.83 320.482,201.04 320.581,201.275" fill="#00733B"/>
      <path d="M321.951,191.438 C322.236,191.443 322.462,191.677 322.457,191.962 C322.452,192.224 322.251,192.44 321.99,192.465 C321.767,192.486 321.511,192.462 321.289,192.302 C321.064,192.141 320.952,191.879 320.918,191.652 C320.909,191.591 320.91,191.529 320.92,191.469 C320.988,191.09 321.162,190.727 321.382,190.253 C321.466,190.072 321.682,189.993 321.863,190.077 C322.013,190.147 322.097,190.309 322.067,190.471 C321.98,190.954 321.988,191.317 322.01,191.378 C322.031,191.436 322.042,191.496 322.043,191.558 C322.043,191.579 322.036,191.552 322.041,191.567 C322.048,191.585 321.961,191.456 321.989,191.485 C322.017,191.513 321.904,191.431 321.917,191.436 C321.926,191.439 321.919,191.437 321.951,191.438" fill="#00733B"/>
      <path d="M325.798,179.666 C325.965,179.896 325.913,180.218 325.683,180.385 C325.454,180.551 325.133,180.501 324.966,180.273 C324.723,179.942 324.421,179.856 324.261,179.357 C324.234,179.274 324.229,179.184 324.246,179.098 C324.269,178.986 324.299,178.86 324.338,178.683 C324.382,178.487 324.575,178.364 324.771,178.408 C324.895,178.435 324.996,178.526 325.036,178.648 C325.081,178.785 325.106,178.815 325.115,178.824 C325.179,178.885 325.226,178.961 325.252,179.045 C325.267,179.096 325.26,179.083 325.341,179.16 C325.439,179.254 325.614,179.413 325.798,179.666" fill="#00733B"/>
      <path d="M299.424,316.315 C299.537,316.576 299.416,316.879 299.155,316.992 C298.894,317.104 298.591,316.984 298.479,316.723 C298.47,316.703 298.463,316.682 298.457,316.662 C298.361,316.33 298.183,315.987 298.218,315.517 C298.255,315.029 298.502,314.485 299.016,313.633 C299.12,313.462 299.342,313.407 299.514,313.51 C299.679,313.61 299.737,313.822 299.645,313.992 C299.198,314.823 299.077,315.286 299.093,315.52 C299.107,315.724 299.245,315.9 299.424,316.315" fill="#00733B"/>
      <path d="M301.872,307.053 C301.901,307.336 301.696,307.589 301.414,307.619 C301.131,307.648 300.877,307.443 300.848,307.161 C300.766,306.329 301.035,305.662 301.609,304.526 C301.814,304.241 301.988,304.001 302.18,303.722 C302.293,303.557 302.518,303.515 302.683,303.629 C302.817,303.72 302.874,303.89 302.822,304.043 C302.713,304.366 302.621,304.649 302.548,304.898 C301.957,306.097 301.808,306.449 301.872,307.053" fill="#00733B"/>
      <path d="M310.167,291.282 C310.419,291.413 310.517,291.724 310.385,291.976 C310.254,292.228 309.943,292.326 309.691,292.195 C309.675,292.186 309.659,292.177 309.644,292.167 C309.322,291.953 309.127,291.549 309.145,291.186 C309.162,290.828 309.305,290.49 309.502,290.107 C309.92,289.294 310.629,288.259 311.518,286.843 C311.624,286.674 311.848,286.623 312.017,286.729 C312.183,286.833 312.236,287.051 312.137,287.22 C311.286,288.668 310.62,289.738 310.294,290.483 C310.146,290.82 310.09,291.07 310.097,291.181 C310.102,291.264 310.084,291.238 310.167,291.282" fill="#00733B"/>
      <path d="M316.812,281.185 C317.037,281.359 317.079,281.682 316.905,281.907 C316.767,282.085 316.529,282.154 316.318,282.075 C316.157,282.015 315.987,281.903 315.87,281.732 C315.753,281.561 315.704,281.353 315.704,281.162 C315.704,281.102 315.713,281.041 315.731,280.983 C315.959,280.251 316.626,279.585 317.605,278.536 C317.741,278.39 317.971,278.382 318.117,278.519 C318.253,278.645 318.271,278.853 318.159,279.002 C317.314,280.125 316.894,280.999 316.898,281.141 C316.9,281.202 316.893,281.263 316.877,281.321 C316.87,281.344 316.857,281.237 316.868,281.281 C316.88,281.328 316.804,281.179 316.812,281.185" fill="#00733B"/>
      <path d="M322.945,272.432 C323.076,272.685 322.977,272.996 322.725,273.126 C322.472,273.257 322.162,273.159 322.031,272.906 C322.016,272.877 322.003,272.846 321.994,272.814 C321.941,272.635 321.963,272.445 322.018,272.301 C322.072,272.161 322.15,272.053 322.232,271.958 C322.395,271.767 322.595,271.604 322.819,271.424 C323.28,271.052 323.842,270.623 324.336,270.056 C324.468,269.906 324.697,269.89 324.848,270.022 C324.992,270.147 325.013,270.363 324.897,270.515 C324.387,271.18 323.811,271.683 323.398,272.081 C323.204,272.268 323.058,272.427 322.995,272.525 C322.968,272.566 322.972,272.551 322.969,272.569 C322.964,272.594 322.921,272.387 322.945,272.432" fill="#00733B"/>
      <path d="M332.26,261.78 C332.353,262.049 332.209,262.342 331.941,262.434 C331.672,262.527 331.379,262.384 331.287,262.115 C331.279,262.094 331.274,262.073 331.269,262.051 C331.211,261.765 331.256,261.454 331.395,261.228 C331.528,261.008 331.705,260.868 331.888,260.728 C332.262,260.439 332.747,260.11 333.31,259.475 C333.442,259.325 333.671,259.311 333.821,259.444 C333.965,259.571 333.984,259.789 333.865,259.94 C333.289,260.667 332.765,261.094 332.461,261.389 C332.326,261.521 332.259,261.615 332.244,261.652 C332.234,261.678 332.226,261.682 332.26,261.78" fill="#00733B"/>
      <path d="M339.913,253.458 C339.817,253.726 339.523,253.865 339.255,253.77 C338.987,253.674 338.847,253.38 338.943,253.112 C338.949,253.095 338.956,253.079 338.963,253.063 C339.412,252.125 339.977,251.98 341.207,250.713 C341.346,250.569 341.575,250.566 341.719,250.705 C341.857,250.84 341.866,251.059 341.739,251.204 C341.109,251.924 340.68,252.333 340.41,252.628 C340.166,252.895 340.052,253.068 339.913,253.458" fill="#00733B"/>
      <path d="M351.689,243.634 C351.638,243.913 351.37,244.099 351.09,244.048 C350.81,243.997 350.625,243.729 350.676,243.449 C350.679,243.429 350.684,243.409 350.69,243.389 C350.901,242.709 351.517,242.458 352.116,242.117 C352.738,241.763 353.471,241.313 354.179,240.516 C354.312,240.366 354.541,240.353 354.691,240.486 C354.836,240.614 354.854,240.834 354.731,240.985 C353.989,241.9 353.192,242.452 352.576,242.863 C352.005,243.245 351.711,243.509 351.689,243.634" fill="#00733B"/>
      <path d="M358.922,238.03 C358.654,238.126 358.36,237.987 358.264,237.719 C358.168,237.451 358.307,237.157 358.575,237.061 C358.607,237.049 358.641,237.041 358.675,237.036 C359.12,236.972 359.548,236.841 360.712,236.146 C360.884,236.043 361.106,236.099 361.209,236.271 C361.306,236.435 361.261,236.646 361.104,236.754 C359.964,237.546 359.444,237.843 358.922,238.03" fill="#00733B"/>
      <path d="M367.495,232.267 C367.212,232.237 367.007,231.983 367.037,231.701 C367.067,231.418 367.32,231.213 367.603,231.243 C367.632,231.246 367.661,231.251 367.689,231.259 C368.032,231.356 368.465,231.17 369.54,230.5 C369.709,230.395 369.933,230.446 370.039,230.616 C370.139,230.777 370.098,230.988 369.945,231.1 C368.913,231.857 368.31,232.353 367.495,232.267" fill="#00733B"/>
      <path d="M375.391,228.219 C375.221,227.991 375.269,227.668 375.497,227.499 C375.726,227.33 376.048,227.378 376.218,227.606 C376.259,227.662 376.289,227.727 376.305,227.795 C376.321,227.862 376.2,227.618 376.228,227.648 C376.254,227.675 376.173,227.606 376.179,227.609 C376.181,227.61 376.223,227.623 376.306,227.62 C376.494,227.612 376.811,227.518 377.182,227.266 C377.348,227.153 377.573,227.196 377.685,227.362 C377.79,227.516 377.761,227.724 377.618,227.844 C377.194,228.197 376.787,228.403 376.421,228.486 C376.244,228.526 376.074,228.539 375.905,228.513 C375.735,228.486 375.537,228.417 375.391,228.219" fill="#00733B"/>
      <path d="M383.086,223.863 C383.262,223.639 383.586,223.6 383.809,223.776 C383.996,223.922 384.058,224.176 383.961,224.392 C383.938,224.444 383.974,224.179 383.982,224.228 C383.99,224.275 383.926,224.107 383.942,224.128 C383.969,224.165 383.858,224.076 383.876,224.08 C383.954,224.096 384.027,224.128 384.092,224.173 C384.123,224.195 384.04,224.16 384.073,224.153 C384.119,224.144 384.23,224.095 384.366,223.941 C384.499,223.791 384.728,223.777 384.878,223.909 C385,224.017 385.035,224.193 384.963,224.34 C384.827,224.62 384.661,224.839 384.458,224.994 C384.256,225.149 384.009,225.238 383.76,225.24 C383.681,225.24 383.602,225.225 383.529,225.194 C383.282,225.09 383.089,224.903 382.99,224.665 C382.889,224.424 382.905,224.095 383.086,223.863" fill="#00733B"/>
      <path d="M392.372,220.743 C392.088,220.742 391.859,220.51 391.86,220.226 C391.861,219.946 392.086,219.718 392.366,219.714 C392.938,219.704 393.191,219.844 393.514,219.741 C393.559,219.727 393.607,219.718 393.654,219.716 C393.781,219.711 393.98,219.667 394.254,219.532 C394.434,219.444 394.651,219.518 394.739,219.698 C394.808,219.839 394.779,220.008 394.666,220.117 C394.405,220.37 394.178,220.556 393.957,220.695 C393.916,220.72 393.872,220.74 393.826,220.754 C393.162,220.952 392.701,220.744 392.372,220.743" fill="#00733B"/>
      <path d="M265.716,334.066 C266.044,334.119 266.266,334.428 266.212,334.756 C266.164,335.053 265.903,335.268 265.602,335.26 C265.292,335.251 264.954,335.069 264.784,334.804 C264.618,334.548 264.583,334.269 264.591,334.011 C264.609,333.496 264.805,332.981 265.12,332.515 C265.69,331.677 266.69,331.326 267.6,331.376 C268.197,331.429 268.676,331.731 269.057,332.097 C269.438,332.464 269.756,332.916 270.057,333.413 C270.668,334.424 271.199,335.622 271.763,336.762 C272.234,337.736 272.797,338.586 273.407,339.345 C274.008,340.118 274.649,340.795 275.287,341.414 C275.822,342.065 276.294,342.611 276.724,343.133 C276.873,343.313 276.847,343.58 276.667,343.728 C276.528,343.843 276.332,343.857 276.178,343.764 C275.604,343.416 274.978,343.034 274.328,342.59 C273.549,341.916 272.82,341.218 272.127,340.404 C271.431,339.557 270.785,338.604 270.246,337.512 C269.676,336.326 269.163,335.152 268.638,334.259 C268.387,333.832 268.139,333.486 267.916,333.264 C267.71,333.06 267.557,332.992 267.468,332.982 C267.042,332.921 266.507,333.083 266.274,333.37 C266.072,333.619 265.933,333.936 265.904,334.132 C265.891,334.215 265.874,334.169 265.891,334.209 C265.915,334.264 265.676,334.059 265.716,334.066" fill="#000000"/>
      <path d="M269.095,342.916 C269.383,343.08 269.485,343.447 269.321,343.736 C269.168,344.003 268.838,344.113 268.556,343.989 C268.354,343.9 268.147,343.772 267.993,343.554 C267.836,343.331 267.779,343.039 267.804,342.785 C267.853,342.288 268.11,341.854 268.456,341.309 C268.872,340.65 269.462,339.833 270.212,338.769 C270.821,337.935 271.516,336.968 272.3,335.825 C272.827,335.044 273.398,334.178 274.007,333.224 C274.769,332.266 275.524,331.279 276.32,330.19 C276.457,330.001 276.722,329.96 276.911,330.098 C277.077,330.219 277.132,330.443 277.04,330.628 C276.436,331.843 275.87,332.961 275.344,333.991 C274.676,335.021 274.087,335.891 273.54,336.681 C272.751,337.836 272.05,338.818 271.446,339.651 C270.65,340.71 270.031,341.5 269.611,342.088 C269.277,342.559 269.105,342.889 269.084,342.986 C269.079,343.012 269.038,342.865 269.061,342.911 C269.082,342.952 269.031,342.88 269.095,342.916" fill="#000000"/>
      <path d="M144.406,246.102 C144.384,246.434 144.097,246.684 143.766,246.662 C143.46,246.641 143.219,246.394 143.206,246.088 C143.202,246.008 143.199,245.949 143.196,245.914 C143.194,245.899 143.194,245.897 143.194,245.894 C143.193,245.887 143.258,246.087 143.224,246 C143.216,245.981 143.28,246.112 143.261,246.078 C143.24,246.042 143.476,246.314 143.391,246.239 C143.129,246.007 143.104,245.607 143.336,245.345 C143.567,245.083 143.967,245.059 144.229,245.29 C144.491,245.521 144.516,245.921 144.285,246.183 C144.259,246.212 144.231,246.239 144.201,246.262 C144.108,246.335 144.368,246.065 144.345,246.103 C144.323,246.137 144.396,246.003 144.387,246.023 C144.348,246.112 144.424,245.903 144.423,245.911 C144.422,245.915 144.414,245.985 144.406,246.102 M143.398,245.277 C143.632,245.079 143.973,245.075 144.212,245.268 C144.528,245.524 144.422,245.571 144.434,245.617 C144.459,245.711 144.46,245.756 144.466,245.815 C144.49,246.06 144.505,246.439 144.523,246.909 C144.566,247.836 144.564,248.974 144.703,249.929 C144.771,250.529 144.892,251.002 145.036,251.312 C145.166,251.592 145.287,251.668 145.292,251.67 C145.382,251.704 145.186,251.664 145.205,251.662 C145.218,251.661 145.21,251.662 145.25,251.645 C145.346,251.602 145.514,251.492 145.7,251.328 C146.095,250.98 146.531,250.46 146.92,249.957 C147.635,249.023 148.214,248.323 148.51,247.712 C148.659,247.404 148.738,246.964 148.851,246.47 C148.886,246.263 148.893,245.961 149.005,245.603 C149.143,245.237 149.424,244.924 149.794,244.815 C150.161,244.707 150.529,244.803 150.809,244.97 C151.365,245.303 151.745,245.923 152,246.761 C152.283,247.667 152.388,248.811 152.468,250.174 C152.549,251.681 152.559,253.39 152.481,255.068 C152.421,256.422 152.266,257.713 152.1,258.824 C151.935,260.054 151.749,261.02 151.474,261.763 C151.34,262.134 151.173,262.464 150.943,262.741 C150.714,263.018 150.399,263.253 150.015,263.342 C149.656,263.421 149.297,263.36 148.997,263.223 C148.701,263.087 148.449,262.882 148.231,262.641 C147.791,262.154 147.468,261.498 147.268,260.729 C147.083,259.955 146.989,259.043 147.145,258.01 C147.391,256.607 148.041,255.135 148.933,253.576 C149.889,251.986 151.087,250.344 152.439,248.677 C152.825,248.319 153.145,248.035 153.47,247.751 C153.646,247.598 153.914,247.616 154.067,247.792 C154.183,247.924 154.204,248.114 154.122,248.269 C153.922,248.645 153.728,249.019 153.542,249.39 C152.266,251.184 151.212,252.846 150.431,254.384 C149.633,255.875 149.118,257.215 148.977,258.271 C148.853,259.062 148.916,259.71 149.051,260.292 C149.169,260.853 149.369,261.278 149.56,261.522 C149.648,261.633 149.727,261.697 149.768,261.72 C149.799,261.738 149.694,261.732 149.736,261.728 C149.779,261.723 149.721,261.744 149.785,261.681 C149.862,261.605 149.973,261.446 150.081,261.201 C150.309,260.666 150.523,259.79 150.713,258.608 C150.868,257.541 151.012,256.295 151.064,255.006 C151.128,253.38 151.105,251.712 151.014,250.262 C150.936,248.938 150.821,247.873 150.607,247.191 C150.416,246.593 150.139,246.303 150.065,246.262 C150.056,246.257 150.128,246.274 150.096,246.269 C150.061,246.264 150.313,246.231 150.252,246.252 C150.189,246.273 150.443,246.112 150.407,246.151 C150.374,246.187 150.457,246.071 150.454,246.078 C150.405,246.204 150.359,246.476 150.278,246.807 C150.2,247.22 150.139,247.776 149.886,248.349 C149.501,249.218 148.878,249.984 148.197,250.918 C147.802,251.467 147.344,252.066 146.826,252.559 C146.569,252.803 146.298,253.025 145.973,253.187 C145.644,253.352 145.202,253.468 144.742,253.32 C144.095,253.078 143.717,252.561 143.477,252.017 C143.236,251.468 143.102,250.833 143.034,250.133 C142.958,248.978 143.047,247.802 143.09,246.902 C143.11,246.434 143.128,246.053 143.155,245.808 C143.161,245.75 143.163,245.706 143.187,245.615 C143.199,245.57 143.098,245.531 143.398,245.277" fill="#000000"/>
      <path d="M248.685,196.34 C248.98,196.49 249.098,196.852 248.948,197.148 C248.849,197.343 248.652,197.469 248.434,197.477 C248.188,197.486 247.882,197.307 247.759,197.1 C247.643,196.905 247.623,196.726 247.616,196.562 C247.604,196.237 247.668,195.906 247.761,195.525 C247.954,194.727 248.296,193.737 248.69,192.598 C249.891,189.445 251.343,185.515 252.318,182.096 C252.892,180.097 253.361,178.415 253.712,177.248 C253.851,176.811 253.958,176.48 254.062,176.19 C254.096,176.09 254.108,175.845 254.34,175.46 C254.578,175.114 254.868,174.737 255.448,174.589 C255.757,174.493 256.073,174.562 256.291,174.648 C256.497,174.729 256.647,174.831 256.778,174.933 C257.034,175.132 257.229,175.35 257.399,175.562 C258.621,177.036 258.734,179.436 259.393,182.305 C259.945,184.885 260.635,187.588 261.235,189.548 C261.578,190.679 261.9,191.516 262.135,192.164 C262.245,192.444 262.342,192.711 262.417,192.915 C262.494,193.145 262.52,193.23 262.536,193.265 C262.753,193.731 262.55,194.285 262.084,194.502 C261.694,194.683 261.231,194.573 260.963,194.237 C260.758,193.979 260.727,193.831 260.638,193.623 C260.544,193.379 260.45,193.128 260.338,192.848 C260.08,192.252 259.694,191.367 259.291,190.174 C258.611,188.141 257.865,185.414 257.252,182.801 C256.599,179.821 256.202,177.445 255.751,176.873 C255.661,176.762 255.545,176.646 255.488,176.602 C255.466,176.586 255.593,176.642 255.529,176.618 C255.492,176.603 255.789,176.665 255.706,176.657 C255.618,176.649 256.154,176.581 256.032,176.62 C256.023,176.625 256.239,176.514 256.21,176.535 C256.136,176.588 256.254,176.491 256.214,176.561 C256.138,176.678 256.203,176.569 256.185,176.62 C256.163,176.682 256.13,176.794 256.074,176.939 C255.991,177.166 255.889,177.472 255.757,177.884 C255.38,179.007 254.877,180.68 254.269,182.672 C253.193,186.178 251.665,190.116 250.396,193.239 C249.896,194.366 249.47,195.302 249.198,195.984 C249.072,196.3 248.987,196.549 248.957,196.683 C248.944,196.739 248.939,196.65 248.945,196.705 C248.949,196.74 248.848,196.464 248.889,196.537 C248.933,196.614 248.602,196.298 248.685,196.34 M261.97,192.949 C262.35,193.068 262.561,193.472 262.442,193.852 C262.322,194.232 261.918,194.443 261.538,194.324 C261.159,194.204 260.948,193.8 261.067,193.421 C261.158,193.13 261.423,192.928 261.728,192.916 C261.849,192.912 261.471,192.973 261.516,192.957 C261.638,192.913 261.268,193.115 261.306,193.081 C261.37,193.022 261.219,193.186 261.223,193.178 C261.224,193.177 261.276,193.038 261.316,192.82 C261.358,192.59 261.578,192.438 261.808,192.48 C261.962,192.508 262.087,192.618 262.135,192.766 C262.182,192.913 262.225,193.026 262.259,193.101 C262.288,193.167 262.201,193.063 262.261,193.13 C262.274,193.144 262.167,193.046 262.198,193.071 C262.215,193.084 262.103,193.005 262.132,193.024 C262.163,193.043 261.867,192.917 261.97,192.949" fill="#A400C7"/>
      <path d="M254.092,187.148 C254.305,187.403 254.271,187.782 254.017,187.995 C253.889,188.103 253.721,188.152 253.555,188.131 C253.488,188.122 253.62,188.117 253.52,188.121 C253.504,188.122 253.664,188.102 253.61,188.111 C253.226,188.181 252.858,187.926 252.789,187.542 C252.72,187.158 252.975,186.79 253.359,186.721 C253.743,186.652 254.11,186.907 254.18,187.291 C254.227,187.551 254.124,187.816 253.913,187.977 C253.815,188.053 254.131,187.706 254.095,187.77 C254.015,187.91 254.179,187.346 254.181,187.431 C254.184,187.548 254.107,187.165 254.128,187.206 C254.146,187.243 254.087,187.143 254.092,187.148 M253.097,188.023 C252.992,187.96 252.904,187.874 252.839,187.77 C252.72,187.58 252.717,187.442 252.72,187.325 C252.725,187.155 252.784,186.992 252.889,186.859 C253.262,186.383 253.546,186.459 253.831,186.412 C254.161,186.374 254.484,186.361 254.846,186.354 C255.07,186.344 255.333,186.336 255.606,186.329 C256.091,186.353 256.525,186.378 256.967,186.4 C257.602,186.467 258.192,186.525 258.744,186.566 C258.828,186.572 258.911,186.592 258.988,186.625 C259.225,186.727 259.452,186.824 259.663,186.917 C259.877,187.011 259.974,187.26 259.88,187.474 C259.844,187.557 259.782,187.626 259.703,187.671 C259.49,187.793 259.253,187.911 259.004,188.024 C258.927,188.059 258.845,188.081 258.761,188.089 C258.179,188.145 257.568,188.182 256.97,188.215 C256.471,188.215 256.035,188.212 255.629,188.212 C255.287,188.188 255.033,188.169 254.799,188.152 C254.482,188.137 254.19,188.128 253.978,188.129 C253.829,188.124 253.745,188.122 253.692,188.123 C253.647,188.124 253.815,188.085 253.722,188.11 C253.559,188.156 253.385,188.147 253.227,188.086 C253.203,188.077 253.182,188.074 253.097,188.023" fill="#A400C7"/>
      <path d="M347.012,279.662 C347.077,279.988 346.865,280.304 346.54,280.369 C346.214,280.434 345.898,280.223 345.833,279.897 C345.755,279.509 345.675,279.171 345.616,279.015 L345.732,279.204 C345.728,279.199 345.871,279.288 345.804,279.253 C345.766,279.233 346.081,279.323 345.99,279.31 C345.942,279.304 346.229,279.301 346.162,279.31 C346.093,279.319 346.478,279.189 346.395,279.234 C346.309,279.28 346.707,278.924 346.638,279.02 C346.585,279.093 346.77,278.716 346.749,278.789 C346.721,278.89 346.777,278.622 346.776,278.638 C346.775,278.65 346.777,278.622 346.776,278.623 C346.776,278.626 346.776,278.652 346.775,278.691 C346.773,278.808 346.746,278.924 346.697,279.031 C346.473,279.52 346.02,282.867 345.923,286.403 C345.822,288.51 345.847,290.527 345.832,292.078 C345.819,292.947 345.752,293.589 345.783,293.982 C345.809,294.265 345.864,294.437 345.897,294.487 C345.908,294.504 345.979,294.563 346.064,294.589 C346.12,294.607 345.968,294.581 345.975,294.579 C345.975,294.579 346.004,294.573 346.054,294.548 C346.167,294.491 346.343,294.361 346.53,294.178 C346.914,293.79 347.332,293.11 347.739,292.407 C348.533,291.043 349.039,289.896 349.061,288.838 C349.07,288.387 349.071,288.017 348.966,287.687 C348.746,287.043 347.915,286.205 347.163,285.577 C346.866,285.341 346.573,285.157 346.401,285.082 C346.378,285.076 346.44,285.08 346.387,285.078 C346.351,285.076 346.681,285.018 346.585,285.048 C346.482,285.08 347.022,284.733 346.92,284.839 C346.853,284.908 346.776,284.968 346.692,285.016 C346.571,285.085 347.023,284.69 346.964,284.772 C346.908,284.85 347.082,284.53 347.065,284.579 C347.035,284.666 347.092,284.463 347.092,284.463 C347.091,284.479 347.099,284.575 347.117,284.658 C347.143,284.835 347.105,284.666 347.13,284.698 C347.16,284.737 347.222,284.794 347.289,284.836 C347.304,284.844 347.265,284.826 347.417,284.809 C347.588,284.788 347.837,284.719 348.117,284.605 C348.704,284.367 349.372,283.975 349.975,283.586 C351.374,282.674 351.991,281.808 352.059,280.806 C352.074,279.969 351.631,278.936 350.718,278.404 C350.424,278.238 350.056,278.138 349.659,278.118 C349.373,278.109 349.06,278.144 348.754,278.221 C348.414,278.297 348.112,278.407 347.835,278.556 C347.644,278.656 347.471,278.769 347.315,278.896 C347.159,279.023 347.02,279.163 346.902,279.314 C346.715,279.519 346.601,279.673 346.507,279.843 C346.419,280.006 346.347,280.195 346.299,280.402 C346.203,280.817 345.819,281.099 345.395,281.066 C345.32,281.06 345.538,281.062 345.517,281.064 C345.499,281.067 345.541,281.06 345.539,281.061 C345.452,281.086 345.359,281.084 345.274,281.053 C345.235,281.039 345.312,281.058 345.252,281.043 C344.839,280.94 344.564,280.55 344.605,280.127 C344.64,279.763 344.721,279.412 344.844,279.081 C344.959,278.759 345.118,278.447 345.31,278.16 C345.578,277.821 345.823,277.581 346.088,277.37 C346.353,277.16 346.637,276.98 346.933,276.829 C347.385,276.603 347.858,276.446 348.34,276.354 C348.855,276.274 349.346,276.265 349.823,276.328 C350.446,276.4 351.071,276.604 351.612,276.961 C353.073,277.895 353.676,279.533 353.577,280.912 C353.546,282.448 352.55,283.867 350.926,285.002 C350.298,285.446 349.577,285.916 348.829,286.257 C348.087,286.596 347.254,286.921 346.372,286.489 C345.867,286.262 345.351,285.882 345.14,285.162 C345.078,284.868 345.047,284.645 345.061,284.378 C345.068,284.239 345.085,284.082 345.157,283.891 C345.234,283.688 345.397,283.411 345.719,283.242 C345.805,283.197 345.897,283.164 345.992,283.145 C346.396,283.064 346.665,283.187 346.842,283.275 C347.01,283.358 347.139,283.447 347.271,283.54 C347.564,283.712 347.911,283.996 348.268,284.334 C349.052,285.043 350.075,285.987 350.445,287.233 C350.639,287.832 350.623,288.4 350.617,288.864 C350.601,290.35 349.955,291.745 349.123,293.202 C348.703,293.933 348.257,294.708 347.663,295.312 C347.414,295.574 347.14,295.815 346.818,295.994 C346.494,296.175 346.071,296.313 345.609,296.194 C345.195,296.083 344.788,295.853 344.497,295.448 C344.198,295.035 344.108,294.579 344.054,294.161 C343.964,293.524 344.018,292.875 344.001,292.09 C343.975,290.556 343.911,288.507 343.974,286.347 C344.066,284.492 344.24,282.738 344.451,281.284 C344.653,279.898 344.776,278.926 345.186,278.237 C345.246,278.136 345.326,278.049 345.421,277.98 C345.595,277.855 345.91,277.679 346.327,277.879 C346.548,277.984 346.733,278.268 346.765,278.447 C346.789,278.578 346.778,278.566 346.778,278.58 C346.779,278.629 346.779,278.697 346.778,278.803 L346.738,278.584 C346.854,278.888 346.93,279.254 347.012,279.662" fill="#00733B"/>
    </g>
  </g>
</svg>
