<?xml version="1.0" encoding="utf-8" standalone="no"?>
<!DOCTYPE svg PUBLIC "-//W3C//DTD SVG 1.1//EN"
  "http://www.w3.org/Graphics/SVG/1.1/DTD/svg11.dtd">
<!-- Created with matplotlib (https://matplotlib.org/) -->
<svg height="262.19625pt" version="1.1" viewBox="0 0 274.18125 262.19625" width="274.18125pt" xmlns="http://www.w3.org/2000/svg" xmlns:xlink="http://www.w3.org/1999/xlink">
 <defs>
  <style type="text/css">
*{stroke-linecap:butt;stroke-linejoin:round;}
  </style>
 </defs>
 <g id="figure_1">
  <g id="patch_1">
   <path d="M 0 262.19625 
L 274.18125 262.19625 
L 274.18125 0 
L 0 0 
z
" style="fill:#ffffff;"/>
  </g>
  <g id="axes_1">
   <g id="patch_2">
    <path d="M 43.78125 224.64 
L 266.98125 224.64 
L 266.98125 7.2 
L 43.78125 7.2 
z
" style="fill:#ffffff;"/>
   </g>
   <g id="PolyCollection_1">
    <defs>
     <path d="M 53.926705 -122.09206 
L 53.926705 -47.439886 
L 64.60613 -57.253947 
L 75.285556 -67.037106 
L 85.964982 -76.781634 
L 96.644408 -86.477186 
L 107.323834 -96.109712 
L 118.00326 -105.659863 
L 128.682685 -115.100709 
L 139.362111 -124.394599 
L 150.041537 -133.489327 
L 160.720963 -142.314793 
L 171.400389 -150.783657 
L 182.079815 -158.802365 
L 192.75924 -166.297 
L 203.438666 -173.244353 
L 214.118092 -179.683611 
L 224.797518 -185.697157 
L 235.476944 -191.378808 
L 246.15637 -196.81181 
L 256.835795 -202.061274 
L 256.835795 -244.626396 
L 256.835795 -244.626396 
L 246.15637 -235.288718 
L 235.476944 -226.134576 
L 224.797518 -217.229084 
L 214.118092 -208.655486 
L 203.438666 -200.507601 
L 192.75924 -192.867811 
L 182.079815 -185.775303 
L 171.400389 -179.206867 
L 160.720963 -173.088587 
L 150.041537 -167.32691 
L 139.362111 -161.834495 
L 128.682685 -156.541241 
L 118.00326 -151.394944 
L 107.323834 -146.357952 
L 96.644408 -141.403334 
L 85.964982 -136.511743 
L 75.285556 -131.669127 
L 64.60613 -126.865143 
L 53.926705 -122.09206 
z
" id="mcabccfd804" style="stroke:#000000;stroke-opacity:0.1;"/>
    </defs>
    <g clip-path="url(#pecca6755a1)">
     <use style="fill-opacity:0.1;stroke:#000000;stroke-opacity:0.1;" x="0" xlink:href="#mcabccfd804" y="262.19625"/>
    </g>
   </g>
   <g id="matplotlib.axis_1">
    <g id="xtick_1">
     <g id="line2d_1">
      <defs>
       <path d="M 0 0 
L 0 3.5 
" id="m61bb4d1d43" style="stroke:#000000;stroke-width:0.8;"/>
      </defs>
      <g>
       <use style="stroke:#000000;stroke-width:0.8;" x="82.913718" xlink:href="#m61bb4d1d43" y="224.64"/>
      </g>
     </g>
     <g id="text_1">
      <!-- −4 -->
      <defs>
       <path d="M 10.59375 35.5 
L 73.1875 35.5 
L 73.1875 27.203125 
L 10.59375 27.203125 
z
" id="DejaVuSans-8722"/>
       <path d="M 37.796875 64.3125 
L 12.890625 25.390625 
L 37.796875 25.390625 
z
M 35.203125 72.90625 
L 47.609375 72.90625 
L 47.609375 25.390625 
L 58.015625 25.390625 
L 58.015625 17.1875 
L 47.609375 17.1875 
L 47.609375 0 
L 37.796875 0 
L 37.796875 17.1875 
L 4.890625 17.1875 
L 4.890625 26.703125 
z
" id="DejaVuSans-52"/>
      </defs>
      <g transform="translate(75.542624 239.238437)scale(0.1 -0.1)">
       <use xlink:href="#DejaVuSans-8722"/>
       <use x="83.789062" xlink:href="#DejaVuSans-52"/>
      </g>
     </g>
    </g>
    <g id="xtick_2">
     <g id="line2d_2">
      <g>
       <use style="stroke:#000000;stroke-width:0.8;" x="140.887744" xlink:href="#m61bb4d1d43" y="224.64"/>
      </g>
     </g>
     <g id="text_2">
      <!-- −2 -->
      <defs>
       <path d="M 19.1875 8.296875 
L 53.609375 8.296875 
L 53.609375 0 
L 7.328125 0 
L 7.328125 8.296875 
Q 12.9375 14.109375 22.625 23.890625 
Q 32.328125 33.6875 34.8125 36.53125 
Q 39.546875 41.84375 41.421875 45.53125 
Q 43.3125 49.21875 43.3125 52.78125 
Q 43.3125 58.59375 39.234375 62.25 
Q 35.15625 65.921875 28.609375 65.921875 
Q 23.96875 65.921875 18.8125 64.3125 
Q 13.671875 62.703125 7.8125 59.421875 
L 7.8125 69.390625 
Q 13.765625 71.78125 18.9375 73 
Q 24.125 74.21875 28.421875 74.21875 
Q 39.75 74.21875 46.484375 68.546875 
Q 53.21875 62.890625 53.21875 53.421875 
Q 53.21875 48.921875 51.53125 44.890625 
Q 49.859375 40.875 45.40625 35.40625 
Q 44.1875 33.984375 37.640625 27.21875 
Q 31.109375 20.453125 19.1875 8.296875 
z
" id="DejaVuSans-50"/>
      </defs>
      <g transform="translate(133.51665 239.238437)scale(0.1 -0.1)">
       <use xlink:href="#DejaVuSans-8722"/>
       <use x="83.789062" xlink:href="#DejaVuSans-50"/>
      </g>
     </g>
    </g>
    <g id="xtick_3">
     <g id="line2d_3">
      <g>
       <use style="stroke:#000000;stroke-width:0.8;" x="198.861769" xlink:href="#m61bb4d1d43" y="224.64"/>
      </g>
     </g>
     <g id="text_3">
      <!-- 0 -->
      <defs>
       <path d="M 31.78125 66.40625 
Q 24.171875 66.40625 20.328125 58.90625 
Q 16.5 51.421875 16.5 36.375 
Q 16.5 21.390625 20.328125 13.890625 
Q 24.171875 6.390625 31.78125 6.390625 
Q 39.453125 6.390625 43.28125 13.890625 
Q 47.125 21.390625 47.125 36.375 
Q 47.125 51.421875 43.28125 58.90625 
Q 39.453125 66.40625 31.78125 66.40625 
z
M 31.78125 74.21875 
Q 44.046875 74.21875 50.515625 64.515625 
Q 56.984375 54.828125 56.984375 36.375 
Q 56.984375 17.96875 50.515625 8.265625 
Q 44.046875 -1.421875 31.78125 -1.421875 
Q 19.53125 -1.421875 13.0625 8.265625 
Q 6.59375 17.96875 6.59375 36.375 
Q 6.59375 54.828125 13.0625 64.515625 
Q 19.53125 74.21875 31.78125 74.21875 
z
" id="DejaVuSans-48"/>
      </defs>
      <g transform="translate(195.680519 239.238437)scale(0.1 -0.1)">
       <use xlink:href="#DejaVuSans-48"/>
      </g>
     </g>
    </g>
    <g id="xtick_4">
     <g id="line2d_4">
      <g>
       <use style="stroke:#000000;stroke-width:0.8;" x="256.835795" xlink:href="#m61bb4d1d43" y="224.64"/>
      </g>
     </g>
     <g id="text_4">
      <!-- 2 -->
      <g transform="translate(253.654545 239.238437)scale(0.1 -0.1)">
       <use xlink:href="#DejaVuSans-50"/>
      </g>
     </g>
    </g>
    <g id="text_5">
     <!-- x -->
     <defs>
      <path d="M 54.890625 54.6875 
L 35.109375 28.078125 
L 55.90625 0 
L 45.3125 0 
L 29.390625 21.484375 
L 13.484375 0 
L 2.875 0 
L 24.125 28.609375 
L 4.6875 54.6875 
L 15.28125 54.6875 
L 29.78125 35.203125 
L 44.28125 54.6875 
z
" id="DejaVuSans-120"/>
     </defs>
     <g transform="translate(152.421875 252.916562)scale(0.1 -0.1)">
      <use xlink:href="#DejaVuSans-120"/>
     </g>
    </g>
   </g>
   <g id="matplotlib.axis_2">
    <g id="ytick_1">
     <g id="line2d_5">
      <defs>
       <path d="M 0 0 
L -3.5 0 
" id="mbe66beca83" style="stroke:#000000;stroke-width:0.8;"/>
      </defs>
      <g>
       <use style="stroke:#000000;stroke-width:0.8;" x="43.78125" xlink:href="#mbe66beca83" y="204.150563"/>
      </g>
     </g>
     <g id="text_6">
      <!-- 1.4 -->
      <defs>
       <path d="M 12.40625 8.296875 
L 28.515625 8.296875 
L 28.515625 63.921875 
L 10.984375 60.40625 
L 10.984375 69.390625 
L 28.421875 72.90625 
L 38.28125 72.90625 
L 38.28125 8.296875 
L 54.390625 8.296875 
L 54.390625 0 
L 12.40625 0 
z
" id="DejaVuSans-49"/>
       <path d="M 10.6875 12.40625 
L 21 12.40625 
L 21 0 
L 10.6875 0 
z
" id="DejaVuSans-46"/>
      </defs>
      <g transform="translate(20.878125 207.949782)scale(0.1 -0.1)">
       <use xlink:href="#DejaVuSans-49"/>
       <use x="63.623047" xlink:href="#DejaVuSans-46"/>
       <use x="95.410156" xlink:href="#DejaVuSans-52"/>
      </g>
     </g>
    </g>
    <g id="ytick_2">
     <g id="line2d_6">
      <g>
       <use style="stroke:#000000;stroke-width:0.8;" x="43.78125" xlink:href="#mbe66beca83" y="162.744324"/>
      </g>
     </g>
     <g id="text_7">
      <!-- 1.6 -->
      <defs>
       <path d="M 33.015625 40.375 
Q 26.375 40.375 22.484375 35.828125 
Q 18.609375 31.296875 18.609375 23.390625 
Q 18.609375 15.53125 22.484375 10.953125 
Q 26.375 6.390625 33.015625 6.390625 
Q 39.65625 6.390625 43.53125 10.953125 
Q 47.40625 15.53125 47.40625 23.390625 
Q 47.40625 31.296875 43.53125 35.828125 
Q 39.65625 40.375 33.015625 40.375 
z
M 52.59375 71.296875 
L 52.59375 62.3125 
Q 48.875 64.0625 45.09375 64.984375 
Q 41.3125 65.921875 37.59375 65.921875 
Q 27.828125 65.921875 22.671875 59.328125 
Q 17.53125 52.734375 16.796875 39.40625 
Q 19.671875 43.65625 24.015625 45.921875 
Q 28.375 48.1875 33.59375 48.1875 
Q 44.578125 48.1875 50.953125 41.515625 
Q 57.328125 34.859375 57.328125 23.390625 
Q 57.328125 12.15625 50.6875 5.359375 
Q 44.046875 -1.421875 33.015625 -1.421875 
Q 20.359375 -1.421875 13.671875 8.265625 
Q 6.984375 17.96875 6.984375 36.375 
Q 6.984375 53.65625 15.1875 63.9375 
Q 23.390625 74.21875 37.203125 74.21875 
Q 40.921875 74.21875 44.703125 73.484375 
Q 48.484375 72.75 52.59375 71.296875 
z
" id="DejaVuSans-54"/>
      </defs>
      <g transform="translate(20.878125 166.543543)scale(0.1 -0.1)">
       <use xlink:href="#DejaVuSans-49"/>
       <use x="63.623047" xlink:href="#DejaVuSans-46"/>
       <use x="95.410156" xlink:href="#DejaVuSans-54"/>
      </g>
     </g>
    </g>
    <g id="ytick_3">
     <g id="line2d_7">
      <g>
       <use style="stroke:#000000;stroke-width:0.8;" x="43.78125" xlink:href="#mbe66beca83" y="121.338085"/>
      </g>
     </g>
     <g id="text_8">
      <!-- 1.8 -->
      <defs>
       <path d="M 31.78125 34.625 
Q 24.75 34.625 20.71875 30.859375 
Q 16.703125 27.09375 16.703125 20.515625 
Q 16.703125 13.921875 20.71875 10.15625 
Q 24.75 6.390625 31.78125 6.390625 
Q 38.8125 6.390625 42.859375 10.171875 
Q 46.921875 13.96875 46.921875 20.515625 
Q 46.921875 27.09375 42.890625 30.859375 
Q 38.875 34.625 31.78125 34.625 
z
M 21.921875 38.8125 
Q 15.578125 40.375 12.03125 44.71875 
Q 8.5 49.078125 8.5 55.328125 
Q 8.5 64.0625 14.71875 69.140625 
Q 20.953125 74.21875 31.78125 74.21875 
Q 42.671875 74.21875 48.875 69.140625 
Q 55.078125 64.0625 55.078125 55.328125 
Q 55.078125 49.078125 51.53125 44.71875 
Q 48 40.375 41.703125 38.8125 
Q 48.828125 37.15625 52.796875 32.3125 
Q 56.78125 27.484375 56.78125 20.515625 
Q 56.78125 9.90625 50.3125 4.234375 
Q 43.84375 -1.421875 31.78125 -1.421875 
Q 19.734375 -1.421875 13.25 4.234375 
Q 6.78125 9.90625 6.78125 20.515625 
Q 6.78125 27.484375 10.78125 32.3125 
Q 14.796875 37.15625 21.921875 38.8125 
z
M 18.3125 54.390625 
Q 18.3125 48.734375 21.84375 45.5625 
Q 25.390625 42.390625 31.78125 42.390625 
Q 38.140625 42.390625 41.71875 45.5625 
Q 45.3125 48.734375 45.3125 54.390625 
Q 45.3125 60.0625 41.71875 63.234375 
Q 38.140625 66.40625 31.78125 66.40625 
Q 25.390625 66.40625 21.84375 63.234375 
Q 18.3125 60.0625 18.3125 54.390625 
z
" id="DejaVuSans-56"/>
      </defs>
      <g transform="translate(20.878125 125.137304)scale(0.1 -0.1)">
       <use xlink:href="#DejaVuSans-49"/>
       <use x="63.623047" xlink:href="#DejaVuSans-46"/>
       <use x="95.410156" xlink:href="#DejaVuSans-56"/>
      </g>
     </g>
    </g>
    <g id="ytick_4">
     <g id="line2d_8">
      <g>
       <use style="stroke:#000000;stroke-width:0.8;" x="43.78125" xlink:href="#mbe66beca83" y="79.931846"/>
      </g>
     </g>
     <g id="text_9">
      <!-- 2.0 -->
      <g transform="translate(20.878125 83.731065)scale(0.1 -0.1)">
       <use xlink:href="#DejaVuSans-50"/>
       <use x="63.623047" xlink:href="#DejaVuSans-46"/>
       <use x="95.410156" xlink:href="#DejaVuSans-48"/>
      </g>
     </g>
    </g>
    <g id="ytick_5">
     <g id="line2d_9">
      <g>
       <use style="stroke:#000000;stroke-width:0.8;" x="43.78125" xlink:href="#mbe66beca83" y="38.525607"/>
      </g>
     </g>
     <g id="text_10">
      <!-- 2.2 -->
      <g transform="translate(20.878125 42.324826)scale(0.1 -0.1)">
       <use xlink:href="#DejaVuSans-50"/>
       <use x="63.623047" xlink:href="#DejaVuSans-46"/>
       <use x="95.410156" xlink:href="#DejaVuSans-50"/>
      </g>
     </g>
    </g>
    <g id="text_11">
     <!-- y -->
     <defs>
      <path d="M 32.171875 -5.078125 
Q 28.375 -14.84375 24.75 -17.8125 
Q 21.140625 -20.796875 15.09375 -20.796875 
L 7.90625 -20.796875 
L 7.90625 -13.28125 
L 13.1875 -13.28125 
Q 16.890625 -13.28125 18.9375 -11.515625 
Q 21 -9.765625 23.484375 -3.21875 
L 25.09375 0.875 
L 2.984375 54.6875 
L 12.5 54.6875 
L 29.59375 11.921875 
L 46.6875 54.6875 
L 56.203125 54.6875 
z
" id="DejaVuSans-121"/>
     </defs>
     <g transform="translate(14.798437 118.879375)rotate(-90)scale(0.1 -0.1)">
      <use xlink:href="#DejaVuSans-121"/>
     </g>
    </g>
   </g>
   <g id="line2d_10">
    <path clip-path="url(#pecca6755a1)" d="M 53.926705 177.430277 
L 64.60613 170.136705 
L 75.285556 162.843133 
L 85.964982 155.549562 
L 96.644408 148.25599 
L 107.323834 140.962418 
L 118.00326 133.668847 
L 128.682685 126.375275 
L 139.362111 119.081703 
L 150.041537 111.788131 
L 160.720963 104.49456 
L 171.400389 97.200988 
L 182.079815 89.907416 
L 192.75924 82.613845 
L 203.438666 75.320273 
L 214.118092 68.026701 
L 224.797518 60.73313 
L 235.476944 53.439558 
L 246.15637 46.145986 
L 256.835795 38.852415 
" style="fill:none;stroke:#000000;stroke-dasharray:5.55,2.4;stroke-dashoffset:0;stroke-width:1.5;"/>
   </g>
   <g id="line2d_11">
    <path clip-path="url(#pecca6755a1)" d="M 53.926705 181.993322 
L 64.60613 174.749087 
L 75.285556 167.504852 
L 85.964982 160.260617 
L 96.644408 153.016381 
L 107.323834 145.772146 
L 118.00326 138.527911 
L 128.682685 131.283675 
L 139.362111 124.03944 
L 150.041537 116.795205 
L 160.720963 109.55097 
L 171.400389 102.306734 
L 182.079815 95.062499 
L 192.75924 87.818264 
L 203.438666 80.574028 
L 214.118092 73.329793 
L 224.797518 66.085558 
L 235.476944 58.841323 
L 246.15637 51.597087 
L 256.835795 44.352852 
" style="fill:none;stroke:#000000;stroke-linecap:square;stroke-opacity:0.3;stroke-width:0.9;"/>
   </g>
   <g id="line2d_12">
    <path clip-path="url(#pecca6755a1)" d="M 53.926705 171.317228 
L 64.60613 165.335033 
L 75.285556 159.352837 
L 85.964982 153.370642 
L 96.644408 147.388447 
L 107.323834 141.406252 
L 118.00326 135.424056 
L 128.682685 129.441861 
L 139.362111 123.459666 
L 150.041537 117.477471 
L 160.720963 111.495275 
L 171.400389 105.51308 
L 182.079815 99.530885 
L 192.75924 93.54869 
L 203.438666 87.566494 
L 214.118092 81.584299 
L 224.797518 75.602104 
L 235.476944 69.619909 
L 246.15637 63.637713 
L 256.835795 57.655518 
" style="fill:none;stroke:#000000;stroke-linecap:square;stroke-opacity:0.3;stroke-width:0.9;"/>
   </g>
   <g id="line2d_13">
    <path clip-path="url(#pecca6755a1)" d="M 53.926705 187.284763 
L 64.60613 178.326809 
L 75.285556 169.368855 
L 85.964982 160.410901 
L 96.644408 151.452947 
L 107.323834 142.494993 
L 118.00326 133.537039 
L 128.682685 124.579085 
L 139.362111 115.621131 
L 150.041537 106.663177 
L 160.720963 97.705223 
L 171.400389 88.747269 
L 182.079815 79.789315 
L 192.75924 70.831361 
L 203.438666 61.873407 
L 214.118092 52.915452 
L 224.797518 43.957498 
L 235.476944 34.999544 
L 246.15637 26.04159 
L 256.835795 17.083636 
" style="fill:none;stroke:#000000;stroke-linecap:square;stroke-opacity:0.3;stroke-width:0.9;"/>
   </g>
   <g id="line2d_14">
    <path clip-path="url(#pecca6755a1)" d="M 53.926705 160.033936 
L 64.60613 154.195661 
L 75.285556 148.357387 
L 85.964982 142.519113 
L 96.644408 136.680838 
L 107.323834 130.842564 
L 118.00326 125.00429 
L 128.682685 119.166015 
L 139.362111 113.327741 
L 150.041537 107.489466 
L 160.720963 101.651192 
L 171.400389 95.812918 
L 182.079815 89.974643 
L 192.75924 84.136369 
L 203.438666 78.298095 
L 214.118092 72.45982 
L 224.797518 66.621546 
L 235.476944 60.783272 
L 246.15637 54.944997 
L 256.835795 49.106723 
" style="fill:none;stroke:#000000;stroke-linecap:square;stroke-opacity:0.3;stroke-width:0.9;"/>
   </g>
   <g id="line2d_15">
    <path clip-path="url(#pecca6755a1)" d="M 53.926705 187.848421 
L 64.60613 179.703157 
L 75.285556 171.557892 
L 85.964982 163.412628 
L 96.644408 155.267363 
L 107.323834 147.122099 
L 118.00326 138.976835 
L 128.682685 130.83157 
L 139.362111 122.686306 
L 150.041537 114.541042 
L 160.720963 106.395777 
L 171.400389 98.250513 
L 182.079815 90.105248 
L 192.75924 81.959984 
L 203.438666 73.81472 
L 214.118092 65.669455 
L 224.797518 57.524191 
L 235.476944 49.378926 
L 246.15637 41.233662 
L 256.835795 33.088398 
" style="fill:none;stroke:#000000;stroke-linecap:square;stroke-opacity:0.3;stroke-width:0.9;"/>
   </g>
   <g id="line2d_16">
    <defs>
     <path d="M 0 3 
C 0.795609 3 1.55874 2.683901 2.12132 2.12132 
C 2.683901 1.55874 3 0.795609 3 0 
C 3 -0.795609 2.683901 -1.55874 2.12132 -2.12132 
C 1.55874 -2.683901 0.795609 -3 0 -3 
C -0.795609 -3 -1.55874 -2.683901 -2.12132 -2.12132 
C -2.683901 -1.55874 -3 -0.795609 -3 0 
C -3 0.795609 -2.683901 1.55874 -2.12132 2.12132 
C -1.55874 2.683901 -0.795609 3 0 3 
z
" id="m3454172d3c" style="stroke:#8f3b1e;"/>
    </defs>
    <g clip-path="url(#pecca6755a1)">
     <use style="fill-opacity:0;stroke:#8f3b1e;" x="53.926705" xlink:href="#m3454172d3c" y="192.335434"/>
     <use style="fill-opacity:0;stroke:#8f3b1e;" x="169.874756" xlink:href="#m3454172d3c" y="100.516135"/>
     <use style="fill-opacity:0;stroke:#8f3b1e;" x="207.557873" xlink:href="#m3454172d3c" y="55.510161"/>
     <use style="fill-opacity:0;stroke:#8f3b1e;" x="209.007224" xlink:href="#m3454172d3c" y="82.804293"/>
     <use style="fill-opacity:0;stroke:#8f3b1e;" x="216.253977" xlink:href="#m3454172d3c" y="74.604174"/>
     <use style="fill-opacity:0;stroke:#8f3b1e;" x="227.848782" xlink:href="#m3454172d3c" y="72.927321"/>
     <use style="fill-opacity:0;stroke:#8f3b1e;" x="236.544886" xlink:href="#m3454172d3c" y="25.430867"/>
     <use style="fill-opacity:0;stroke:#8f3b1e;" x="256.835795" xlink:href="#m3454172d3c" y="55.628382"/>
    </g>
   </g>
   <g id="patch_3">
    <path d="M 43.78125 224.64 
L 43.78125 7.2 
" style="fill:none;stroke:#000000;stroke-linecap:square;stroke-linejoin:miter;stroke-width:0.8;"/>
   </g>
   <g id="patch_4">
    <path d="M 43.78125 224.64 
L 266.98125 224.64 
" style="fill:none;stroke:#000000;stroke-linecap:square;stroke-linejoin:miter;stroke-width:0.8;"/>
   </g>
  </g>
 </g>
 <defs>
  <clipPath id="pecca6755a1">
   <rect height="217.44" width="223.2" x="43.78125" y="7.2"/>
  </clipPath>
 </defs>
</svg>
